<svg width="437" height="582" viewBox="0 0 437 582" fill="none" xmlns="http://www.w3.org/2000/svg">
<path d="M152.438 44.6455C157.052 27.3768 167.478 14.8416 184.094 6.55655L196.239 0.5H188.527C185.887 0.5 181.843 1.34049 177.418 2.72585C173.005 4.10747 168.261 6.01591 164.235 8.12029C145.643 17.8415 134.215 35.129 132.469 56.1833C131.364 69.5133 133.583 81.4789 139.43 92.6998C145.281 103.928 154.778 114.437 168.271 124.827C185.927 138.42 197.416 148.457 204.49 157.123C211.582 165.811 214.258 173.149 214.258 181.324C214.258 186.694 212.255 193.359 208.866 200.166C205.474 206.982 200.672 213.982 195.026 220.029C192.694 222.528 190.716 224.93 189.41 226.783C188.755 227.713 188.281 228.488 188.013 229.059C187.883 229.335 187.813 229.54 187.787 229.677C187.811 229.679 187.839 229.681 187.871 229.683C188.062 229.69 188.337 229.668 188.698 229.609C189.416 229.493 190.397 229.245 191.577 228.88C193.933 228.152 197.026 226.976 200.285 225.529C207.166 222.472 215.023 216.337 221.463 209.592C224.68 206.223 227.533 202.712 229.727 199.374C231.926 196.028 233.444 192.884 234.023 190.243L234.511 190.35L234.023 190.243C234.126 189.774 234.225 189.319 234.321 188.878C234.96 185.946 235.46 183.652 236.009 181.92C236.638 179.938 237.368 178.562 238.572 177.81C239.818 177.032 241.444 177.004 243.634 177.374C245.557 177.699 248.024 178.353 251.219 179.2C251.681 179.323 252.158 179.449 252.651 179.579C262.957 182.299 272.692 186.192 280.461 190.49C288.207 194.775 294.076 199.503 296.55 203.93C298.094 206.692 298.869 209.413 298.837 212.099C298.805 214.787 297.965 217.406 296.333 219.962C293.081 225.056 286.671 229.923 277.136 234.695C255.379 245.59 228.499 250.443 189.911 250.498C164.157 250.535 141.994 247.727 124.484 243.129C106.989 238.534 94.0852 232.136 86.9055 224.952C83.3111 221.355 81.1256 217.535 80.5513 213.621C79.9754 209.697 81.0292 205.744 83.793 201.914C89.2957 194.288 101.609 187.1 121.634 181.335C136.482 177.061 147.451 174.666 155.411 174.107C163.349 173.55 168.439 174.809 171.349 178.026C175.348 182.448 177.565 188.596 177.934 194.782C178.302 200.968 176.824 207.25 173.36 211.937C171.63 214.278 170.324 216.119 169.417 217.566C168.5 219.028 168.029 220.03 167.907 220.706C167.848 221.033 167.879 221.239 167.941 221.372C167.999 221.499 168.11 221.62 168.333 221.728C168.818 221.964 169.671 222.068 170.986 222.068C172.513 222.068 174.518 221.288 176.762 219.886C178.989 218.494 181.388 216.53 183.69 214.252C188.304 209.686 192.454 203.931 194.038 199.129C198.253 186.352 192.811 169.316 180.431 157.043L180.783 156.688L180.431 157.043C174.867 151.524 161.873 142.361 150.239 135.074C144.427 131.434 138.976 128.275 134.985 126.285C132.983 125.286 131.374 124.595 130.279 124.277C129.719 124.115 129.354 124.069 129.156 124.092C129.15 124.093 129.143 124.093 129.138 124.094C129.153 125.047 129.474 126.357 130.071 127.922C130.679 129.515 131.557 131.333 132.633 133.241C134.786 137.058 137.714 141.204 140.803 144.596L140.433 144.933L140.803 144.596C142.361 146.307 143.655 147.972 144.483 149.28C144.895 149.93 145.206 150.514 145.372 150.984C145.454 151.216 145.512 151.454 145.512 151.674C145.513 151.894 145.452 152.182 145.196 152.374L145.196 152.375C145.099 152.448 144.966 152.507 144.856 152.552C144.731 152.603 144.572 152.661 144.387 152.723C144.016 152.849 143.515 153.002 142.901 153.179C141.672 153.533 139.975 153.987 137.934 154.509C133.852 155.553 128.384 156.873 122.513 158.216C109.82 161.122 97.3713 165.491 86.7042 170.588C76.0299 175.688 67.1707 181.503 61.6291 187.286C57.7738 191.311 55.8038 193.697 54.6446 198.278C53.4685 202.926 53.1303 209.822 52.6791 222.879C50.8128 276.894 63.4409 312.903 94.6827 342.921C119.433 366.706 145.755 378.82 175.916 380.347L194.64 381.296M152.438 44.6455C152.438 44.6455 152.438 44.6454 152.438 44.6454L152.921 44.7745L152.438 44.6455ZM152.438 44.6455C151.039 49.8782 150.375 53.487 150.576 57.1012C150.776 60.7141 151.839 64.2923 153.813 69.4682C159.44 84.2145 169.29 94.6777 197.752 116.377C203.613 120.846 209.711 126.071 214.812 130.888C219.924 135.715 224.001 140.101 225.848 142.895L226.265 142.619M226.265 142.619L225.848 142.895C228.999 147.658 231.208 150.431 235.172 152.52C239.091 154.586 244.707 155.97 254.607 158.1L254.712 157.611M226.265 142.619C232.551 152.121 234.871 153.344 254.712 157.611M226.265 142.619L196.692 381.4M254.712 157.611L254.607 158.1C281.609 163.905 306.308 176.121 318.478 189.603L318.85 189.268M254.712 157.611C281.767 163.428 306.581 175.677 318.85 189.268M318.85 189.268L318.479 189.603C322.309 193.844 325.357 196.598 328.828 198.471C332.301 200.344 336.159 201.314 341.575 202.056C366.878 205.528 383.5 223.246 383.5 246.586C383.5 264.286 372.366 283.875 353.915 301.534C335.478 319.18 309.8 334.831 280.87 344.66C271.103 347.979 264.595 349.84 256.265 350.902C247.921 351.965 237.739 352.23 220.62 352.335C187.343 352.541 179.828 351.732 164.197 346.329L164.034 346.801M318.85 189.268C326.486 197.722 330.857 200.083 341.643 201.561C367.16 205.062 384 222.963 384 246.586C384 282.383 339.018 325.432 281.031 345.134C261.473 351.78 254.852 352.624 220.623 352.835C187.335 353.042 179.748 352.234 164.034 346.801M164.034 346.801L164.197 346.329C142.567 338.854 125.311 328.306 111.645 314.222C108.745 311.234 106.506 309.031 104.906 307.66C104.11 306.978 103.448 306.481 102.928 306.198C102.671 306.059 102.412 305.951 102.166 305.917C101.91 305.882 101.604 305.924 101.376 306.169C101.172 306.388 101.12 306.678 101.115 306.921C101.109 307.175 101.152 307.471 101.228 307.795C101.379 308.445 101.683 309.306 102.123 310.368C103.006 312.499 104.471 315.524 106.48 319.466C120.186 346.352 146.656 366.632 182.035 377.444L194.64 381.296M164.034 346.801C142.342 339.306 125.015 328.718 111.286 314.57C99.6851 302.618 98.8888 303.472 106.926 319.239C120.556 345.977 146.9 366.184 182.181 376.966L196.692 381.4M194.64 381.296L196.692 381.4M194.64 381.296L196.605 381.896L175.89 380.846C145.593 379.313 119.161 367.137 94.3362 343.282C62.9678 313.142 50.3095 276.981 52.1794 222.861C53.08 196.796 53.5304 195.019 61.2681 186.94C72.4684 175.251 96.9448 163.557 122.401 157.729C134.137 155.044 144.258 152.453 144.895 151.975L196.692 381.4M315.991 301.765C316.278 302.051 316.68 302.068 316.995 302.026C317.331 301.981 317.722 301.852 318.144 301.67C318.994 301.303 320.087 300.671 321.344 299.845C323.866 298.189 327.126 295.704 330.576 292.847C337.471 287.137 345.185 279.893 349.342 274.725L348.952 274.412L349.342 274.725C354.01 268.92 357.204 261.654 358.534 254.918C359.859 248.212 359.36 241.897 356.461 238.099C355.452 236.777 353.852 235.611 351.939 234.637C350.019 233.66 347.751 232.861 345.369 232.292C340.617 231.155 335.335 230.912 331.388 232.053L331.388 232.053C329.427 232.622 328.165 234.419 327.235 237.918C326.302 241.432 325.656 246.842 325.067 254.944C324.223 266.566 321.572 281.489 319.192 288.085C317.986 291.426 317.008 294.587 316.402 296.991C316.099 298.192 315.887 299.216 315.787 299.984C315.737 300.366 315.713 300.703 315.724 300.975C315.73 301.11 315.745 301.245 315.778 301.369C315.808 301.485 315.866 301.639 315.991 301.765ZM315.991 301.765L316.345 301.411L315.992 301.765C315.992 301.765 315.992 301.765 315.991 301.765Z" fill="#F5F5DC" stroke="#F5F5DC"/>
<mask id="path-2-outside-1_9_23" maskUnits="userSpaceOnUse" x="12" y="410" width="421" height="90" fill="black">
<rect fill="white" x="12" y="410" width="421" height="90"/>
<path d="M48.7038 413C54.5438 413 59.6638 414.12 64.0638 416.36C68.5438 418.52 72.2638 421.56 75.2238 425.48C78.1838 429.4 80.3838 433.92 81.8238 439.04C83.3438 444.08 84.1038 449.4 84.1038 455C84.1038 462.68 82.7838 469.72 80.1438 476.12C77.5038 482.44 73.5838 487.52 68.3838 491.36C63.1838 495.12 56.6238 497 48.7038 497H18.7038C17.3438 497 16.1838 496.52 15.2238 495.56C14.3438 494.6 13.9038 493.44 13.9038 492.08V417.8C13.9038 416.44 14.3438 415.32 15.2238 414.44C16.1838 413.48 17.3438 413 18.7038 413H48.7038ZM47.5038 487.64C53.6638 487.64 58.6638 486.16 62.5038 483.2C66.4238 480.24 69.2638 476.28 71.0238 471.32C72.8638 466.36 73.7838 460.92 73.7838 455C73.7838 450.68 73.2638 446.56 72.2238 442.64C71.2638 438.64 69.7038 435.12 67.5438 432.08C65.4638 429.04 62.7438 426.64 59.3838 424.88C56.1038 423.12 52.1438 422.24 47.5038 422.24H22.9038L23.8638 421.28V488.84L23.1438 487.64H47.5038ZM175.757 455C175.757 461.16 174.757 466.88 172.757 472.16C170.757 477.36 167.957 481.92 164.357 485.84C160.757 489.76 156.477 492.8 151.517 494.96C146.557 497.12 141.157 498.2 135.317 498.2C129.397 498.2 123.957 497.12 118.997 494.96C114.117 492.8 109.877 489.76 106.277 485.84C102.677 481.92 99.8766 477.36 97.8766 472.16C95.8766 466.88 94.8766 461.16 94.8766 455C94.8766 448.76 95.8766 443.04 97.8766 437.84C99.8766 432.56 102.677 428 106.277 424.16C109.877 420.24 114.117 417.2 118.997 415.04C123.957 412.88 129.397 411.8 135.317 411.8C141.157 411.8 146.557 412.88 151.517 415.04C156.477 417.2 160.757 420.24 164.357 424.16C167.957 428 170.757 432.56 172.757 437.84C174.757 443.04 175.757 448.76 175.757 455ZM165.437 455C165.437 448.44 164.117 442.64 161.477 437.6C158.917 432.56 155.397 428.6 150.917 425.72C146.437 422.84 141.237 421.4 135.317 421.4C129.397 421.4 124.157 422.84 119.597 425.72C115.117 428.6 111.597 432.56 109.037 437.6C106.477 442.64 105.197 448.44 105.197 455C105.197 461.48 106.477 467.28 109.037 472.4C111.597 477.44 115.117 481.4 119.597 484.28C124.157 487.16 129.397 488.6 135.317 488.6C141.237 488.6 146.437 487.16 150.917 484.28C155.397 481.4 158.917 477.44 161.477 472.4C164.117 467.28 165.437 461.48 165.437 455ZM253.837 413C255.197 413 256.277 413.44 257.077 414.32C257.877 415.12 258.277 416.16 258.277 417.44V491.96C258.277 493.48 257.797 494.72 256.837 495.68C255.877 496.56 254.717 497 253.357 497C252.637 497 251.917 496.88 251.197 496.64C250.477 496.32 249.917 495.92 249.517 495.44L198.157 427.52L200.557 426.08V492.56C200.557 493.84 200.117 494.92 199.237 495.8C198.437 496.6 197.357 497 195.997 497C194.717 497 193.677 496.6 192.877 495.8C192.077 494.92 191.677 493.84 191.677 492.56V417.8C191.677 416.36 192.117 415.2 192.997 414.32C193.957 413.44 195.077 413 196.357 413C197.077 413 197.797 413.16 198.517 413.48C199.317 413.72 199.917 414.12 200.317 414.68L250.957 481.64L249.397 483.56V417.44C249.397 416.16 249.797 415.12 250.597 414.32C251.477 413.44 252.557 413 253.837 413ZM341.493 413C342.853 413 343.933 413.44 344.733 414.32C345.533 415.12 345.933 416.16 345.933 417.44V491.96C345.933 493.48 345.453 494.72 344.493 495.68C343.533 496.56 342.373 497 341.013 497C340.293 497 339.573 496.88 338.853 496.64C338.133 496.32 337.573 495.92 337.173 495.44L285.813 427.52L288.213 426.08V492.56C288.213 493.84 287.773 494.92 286.893 495.8C286.093 496.6 285.013 497 283.653 497C282.373 497 281.333 496.6 280.533 495.8C279.733 494.92 279.333 493.84 279.333 492.56V417.8C279.333 416.36 279.773 415.2 280.653 414.32C281.613 413.44 282.733 413 284.013 413C284.733 413 285.453 413.16 286.173 413.48C286.973 413.72 287.573 414.12 287.973 414.68L338.613 481.64L337.053 483.56V417.44C337.053 416.16 337.453 415.12 338.253 414.32C339.133 413.44 340.213 413 341.493 413ZM396.03 425.48L367.83 494.12C367.51 495.08 366.95 495.84 366.15 496.4C365.35 496.96 364.51 497.24 363.63 497.24C362.11 497.24 360.99 496.84 360.27 496.04C359.55 495.24 359.19 494.28 359.19 493.16C359.11 492.6 359.19 492 359.43 491.36L390.51 415.76C390.91 414.64 391.51 413.84 392.31 413.36C393.19 412.8 394.15 412.56 395.19 412.64C396.23 412.64 397.15 412.92 397.95 413.48C398.83 414.04 399.43 414.8 399.75 415.76L430.71 490.64C430.95 491.28 431.07 491.92 431.07 492.56C431.07 494 430.59 495.16 429.63 496.04C428.67 496.84 427.59 497.24 426.39 497.24C425.43 497.24 424.55 496.96 423.75 496.4C422.95 495.84 422.35 495.04 421.95 494L393.39 425.36L396.03 425.48ZM373.83 474.56L377.91 465.2H413.55L415.35 474.56H373.83Z"/>
</mask>
<path d="M48.7038 413C54.5438 413 59.6638 414.12 64.0638 416.36C68.5438 418.52 72.2638 421.56 75.2238 425.48C78.1838 429.4 80.3838 433.92 81.8238 439.04C83.3438 444.08 84.1038 449.4 84.1038 455C84.1038 462.68 82.7838 469.72 80.1438 476.12C77.5038 482.44 73.5838 487.52 68.3838 491.36C63.1838 495.12 56.6238 497 48.7038 497H18.7038C17.3438 497 16.1838 496.52 15.2238 495.56C14.3438 494.6 13.9038 493.44 13.9038 492.08V417.8C13.9038 416.44 14.3438 415.32 15.2238 414.44C16.1838 413.48 17.3438 413 18.7038 413H48.7038ZM47.5038 487.64C53.6638 487.64 58.6638 486.16 62.5038 483.2C66.4238 480.24 69.2638 476.28 71.0238 471.32C72.8638 466.36 73.7838 460.92 73.7838 455C73.7838 450.68 73.2638 446.56 72.2238 442.64C71.2638 438.64 69.7038 435.12 67.5438 432.08C65.4638 429.04 62.7438 426.64 59.3838 424.88C56.1038 423.12 52.1438 422.24 47.5038 422.24H22.9038L23.8638 421.28V488.84L23.1438 487.64H47.5038ZM175.757 455C175.757 461.16 174.757 466.88 172.757 472.16C170.757 477.36 167.957 481.92 164.357 485.84C160.757 489.76 156.477 492.8 151.517 494.96C146.557 497.12 141.157 498.2 135.317 498.2C129.397 498.2 123.957 497.12 118.997 494.96C114.117 492.8 109.877 489.76 106.277 485.84C102.677 481.92 99.8766 477.36 97.8766 472.16C95.8766 466.88 94.8766 461.16 94.8766 455C94.8766 448.76 95.8766 443.04 97.8766 437.84C99.8766 432.56 102.677 428 106.277 424.16C109.877 420.24 114.117 417.2 118.997 415.04C123.957 412.88 129.397 411.8 135.317 411.8C141.157 411.8 146.557 412.88 151.517 415.04C156.477 417.2 160.757 420.24 164.357 424.16C167.957 428 170.757 432.56 172.757 437.84C174.757 443.04 175.757 448.76 175.757 455ZM165.437 455C165.437 448.44 164.117 442.64 161.477 437.6C158.917 432.56 155.397 428.6 150.917 425.72C146.437 422.84 141.237 421.4 135.317 421.4C129.397 421.4 124.157 422.84 119.597 425.72C115.117 428.6 111.597 432.56 109.037 437.6C106.477 442.64 105.197 448.44 105.197 455C105.197 461.48 106.477 467.28 109.037 472.4C111.597 477.44 115.117 481.4 119.597 484.28C124.157 487.16 129.397 488.6 135.317 488.6C141.237 488.6 146.437 487.16 150.917 484.28C155.397 481.4 158.917 477.44 161.477 472.4C164.117 467.28 165.437 461.48 165.437 455ZM253.837 413C255.197 413 256.277 413.44 257.077 414.32C257.877 415.12 258.277 416.16 258.277 417.44V491.96C258.277 493.48 257.797 494.72 256.837 495.68C255.877 496.56 254.717 497 253.357 497C252.637 497 251.917 496.88 251.197 496.64C250.477 496.32 249.917 495.92 249.517 495.44L198.157 427.52L200.557 426.08V492.56C200.557 493.84 200.117 494.92 199.237 495.8C198.437 496.6 197.357 497 195.997 497C194.717 497 193.677 496.6 192.877 495.8C192.077 494.92 191.677 493.84 191.677 492.56V417.8C191.677 416.36 192.117 415.2 192.997 414.32C193.957 413.44 195.077 413 196.357 413C197.077 413 197.797 413.16 198.517 413.48C199.317 413.72 199.917 414.12 200.317 414.68L250.957 481.64L249.397 483.56V417.44C249.397 416.16 249.797 415.12 250.597 414.32C251.477 413.44 252.557 413 253.837 413ZM341.493 413C342.853 413 343.933 413.44 344.733 414.32C345.533 415.12 345.933 416.16 345.933 417.44V491.96C345.933 493.48 345.453 494.72 344.493 495.68C343.533 496.56 342.373 497 341.013 497C340.293 497 339.573 496.88 338.853 496.64C338.133 496.32 337.573 495.92 337.173 495.44L285.813 427.52L288.213 426.08V492.56C288.213 493.84 287.773 494.92 286.893 495.8C286.093 496.6 285.013 497 283.653 497C282.373 497 281.333 496.6 280.533 495.8C279.733 494.92 279.333 493.84 279.333 492.56V417.8C279.333 416.36 279.773 415.2 280.653 414.32C281.613 413.44 282.733 413 284.013 413C284.733 413 285.453 413.16 286.173 413.48C286.973 413.72 287.573 414.12 287.973 414.68L338.613 481.64L337.053 483.56V417.44C337.053 416.16 337.453 415.12 338.253 414.32C339.133 413.44 340.213 413 341.493 413ZM396.03 425.48L367.83 494.12C367.51 495.08 366.95 495.84 366.15 496.4C365.35 496.96 364.51 497.24 363.63 497.24C362.11 497.24 360.99 496.84 360.27 496.04C359.55 495.24 359.19 494.28 359.19 493.16C359.11 492.6 359.19 492 359.43 491.36L390.51 415.76C390.91 414.64 391.51 413.84 392.31 413.36C393.19 412.8 394.15 412.56 395.19 412.64C396.23 412.64 397.15 412.92 397.95 413.48C398.83 414.04 399.43 414.8 399.75 415.76L430.71 490.64C430.95 491.28 431.07 491.92 431.07 492.56C431.07 494 430.59 495.16 429.63 496.04C428.67 496.84 427.59 497.24 426.39 497.24C425.43 497.24 424.55 496.96 423.75 496.4C422.95 495.84 422.35 495.04 421.95 494L393.39 425.36L396.03 425.48ZM373.83 474.56L377.91 465.2H413.55L415.35 474.56H373.83Z" fill="#F5F5DC"/>
<path d="M64.0638 416.36L63.6101 417.251L63.6197 417.256L63.6295 417.261L64.0638 416.36ZM75.2238 425.48L74.4257 426.083L75.2238 425.48ZM81.8238 439.04L80.8611 439.311L80.8636 439.32L80.8663 439.329L81.8238 439.04ZM80.1438 476.12L81.0665 476.505L81.0682 476.501L80.1438 476.12ZM68.3838 491.36L68.9697 492.17L68.9778 492.164L68.3838 491.36ZM15.2238 495.56L14.4866 496.236L14.5013 496.252L14.5166 496.267L15.2238 495.56ZM15.2238 414.44L15.9309 415.147H15.9309L15.2238 414.44ZM62.5038 483.2L61.9011 482.402L61.8932 482.408L62.5038 483.2ZM71.0238 471.32L70.0862 470.972L70.0837 470.979L70.0813 470.986L71.0238 471.32ZM72.2237 442.64L71.2514 442.873L71.2541 442.885L71.2572 442.896L72.2237 442.64ZM67.5438 432.08L66.7184 432.645L66.7234 432.652L66.7286 432.659L67.5438 432.08ZM59.3838 424.88L58.9109 425.761L58.9197 425.766L59.3838 424.88ZM22.9037 422.24L22.1966 421.533L20.4895 423.24H22.9037V422.24ZM23.8638 421.28H24.8638V418.866L23.1566 420.573L23.8638 421.28ZM23.8638 488.84L23.0063 489.354L24.8638 492.45V488.84H23.8638ZM23.1438 487.64V486.64H21.3776L22.2863 488.154L23.1438 487.64ZM48.7038 414C54.4148 414 59.3741 415.095 63.6101 417.251L64.5174 415.469C59.9534 413.145 54.6727 412 48.7038 412V414ZM63.6295 417.261C67.9681 419.353 71.5628 422.291 74.4257 426.083L76.0218 424.877C72.9647 420.829 69.1194 417.687 64.4981 415.459L63.6295 417.261ZM74.4257 426.083C77.3046 429.895 79.452 434.301 80.8611 439.311L82.7864 438.769C81.3155 433.539 79.0629 428.905 76.0218 424.877L74.4257 426.083ZM80.8663 439.329C82.3564 444.269 83.1038 449.492 83.1038 455H85.1038C85.1038 449.308 84.3312 443.891 82.7812 438.751L80.8663 439.329ZM83.1038 455C83.1038 462.563 81.8042 469.472 79.2193 475.739L81.0682 476.501C83.7633 469.968 85.1038 462.797 85.1038 455H83.1038ZM79.221 475.735C76.6464 481.898 72.8355 486.829 67.7897 490.556L68.9778 492.164C74.332 488.211 78.3611 482.982 81.0665 476.505L79.221 475.735ZM67.7978 490.55C62.8048 494.16 56.4634 496 48.7038 496V498C56.7841 498 63.5627 496.08 68.9697 492.17L67.7978 490.55ZM48.7038 496H18.7038V498H48.7038V496ZM18.7038 496C17.6084 496 16.703 495.625 15.9309 494.853L14.5166 496.267C15.6645 497.415 17.0791 498 18.7038 498V496ZM15.9609 494.884C15.258 494.118 14.9038 493.202 14.9038 492.08H12.9038C12.9038 493.678 13.4295 495.083 14.4866 496.236L15.9609 494.884ZM14.9038 492.08V417.8H12.9038V492.08H14.9038ZM14.9038 417.8C14.9038 416.678 15.2567 415.821 15.9309 415.147L14.5166 413.733C13.4308 414.819 12.9038 416.202 12.9038 417.8H14.9038ZM15.9309 415.147C16.703 414.375 17.6084 414 18.7038 414V412C17.0791 412 15.6645 412.585 14.5166 413.733L15.9309 415.147ZM18.7038 414H48.7038V412H18.7038V414ZM47.5038 488.64C53.8241 488.64 59.0568 487.12 63.1143 483.992L61.8932 482.408C58.2707 485.2 53.5034 486.64 47.5038 486.64V488.64ZM63.1064 483.998C67.1939 480.912 70.1456 476.785 71.9662 471.654L70.0813 470.986C68.3819 475.775 65.6536 479.568 61.9011 482.402L63.1064 483.998ZM71.9613 471.668C73.8472 466.584 74.7838 461.025 74.7838 455H72.7838C72.7838 460.815 71.8803 466.136 70.0862 470.972L71.9613 471.668ZM74.7838 455C74.7838 450.599 74.2539 446.392 73.1903 442.384L71.2572 442.896C72.2736 446.727 72.7838 450.761 72.7838 455H74.7838ZM73.1961 442.407C72.2094 438.295 70.6002 434.655 68.3589 431.501L66.7286 432.659C68.8073 435.585 70.3181 438.985 71.2514 442.873L73.1961 442.407ZM68.3691 431.515C66.1939 428.336 63.3482 425.828 59.8478 423.994L58.9197 425.766C62.1393 427.452 64.7336 429.744 66.7184 432.645L68.3691 431.515ZM59.8566 423.999C56.3996 422.144 52.2688 421.24 47.5038 421.24V423.24C52.0187 423.24 55.8079 424.096 58.9109 425.761L59.8566 423.999ZM47.5038 421.24H22.9037V423.24H47.5038V421.24ZM23.6109 422.947L24.5709 421.987L23.1566 420.573L22.1966 421.533L23.6109 422.947ZM22.8638 421.28V488.84H24.8638V421.28H22.8638ZM24.7212 488.326L24.0012 487.126L22.2863 488.154L23.0063 489.354L24.7212 488.326ZM23.1438 488.64H47.5038V486.64H23.1438V488.64ZM172.757 472.16L173.69 472.519L173.692 472.514L172.757 472.16ZM164.357 485.84L163.62 485.164L164.357 485.84ZM151.517 494.96L151.117 494.043L151.517 494.96ZM118.997 494.96L118.592 495.874L118.597 495.877L118.997 494.96ZM106.277 485.84L105.54 486.516L106.277 485.84ZM97.8766 472.16L96.9414 472.514L96.9432 472.519L97.8766 472.16ZM97.8766 437.84L98.8099 438.199L98.8117 438.194L97.8766 437.84ZM106.277 424.16L107.006 424.844L107.013 424.836L106.277 424.16ZM118.997 415.04L118.597 414.123L118.592 414.126L118.997 415.04ZM151.517 415.04L151.117 415.957L151.517 415.04ZM164.357 424.16L163.62 424.836L163.627 424.844L164.357 424.16ZM172.757 437.84L171.821 438.194L171.823 438.199L172.757 437.84ZM161.477 437.6L160.585 438.053L160.591 438.064L161.477 437.6ZM119.597 425.72L119.063 424.874L119.056 424.879L119.597 425.72ZM109.037 437.6L108.145 437.147L109.037 437.6ZM109.037 472.4L108.142 472.847L108.145 472.853L109.037 472.4ZM119.597 484.28L119.056 485.121L119.063 485.125L119.597 484.28ZM150.917 484.28L150.376 483.439L150.917 484.28ZM161.477 472.4L160.588 471.942L160.585 471.947L161.477 472.4ZM174.757 455C174.757 461.05 173.775 466.649 171.821 471.806L173.692 472.514C175.738 467.111 176.757 461.27 176.757 455H174.757ZM171.823 471.801C169.866 476.889 167.131 481.34 163.62 485.164L165.093 486.516C168.782 482.5 171.647 477.831 173.69 472.519L171.823 471.801ZM163.62 485.164C160.116 488.979 155.952 491.938 151.117 494.043L151.916 495.877C157.002 493.662 161.397 490.541 165.093 486.516L163.62 485.164ZM151.117 494.043C146.293 496.144 141.03 497.2 135.317 497.2V499.2C141.283 499.2 146.82 498.096 151.916 495.877L151.117 494.043ZM135.317 497.2C129.521 497.2 124.218 496.143 119.396 494.043L118.597 495.877C123.695 498.097 129.272 499.2 135.317 499.2V497.2ZM119.401 494.046C114.647 491.941 110.52 488.982 107.013 485.164L105.54 486.516C109.233 490.538 113.586 493.659 118.592 495.874L119.401 494.046ZM107.013 485.164C103.502 481.34 100.767 476.889 98.8099 471.801L96.9432 472.519C98.9862 477.831 101.851 482.5 105.54 486.516L107.013 485.164ZM98.8117 471.806C96.8583 466.649 95.8766 461.05 95.8766 455H93.8766C93.8766 461.27 94.8948 467.111 96.9414 472.514L98.8117 471.806ZM95.8766 455C95.8766 448.868 96.8589 443.271 98.8099 438.199L96.9432 437.481C94.8942 442.808 93.8766 448.652 93.8766 455H95.8766ZM98.8117 438.194C100.769 433.028 103.502 428.582 107.006 424.844L105.547 423.476C101.851 427.418 98.9843 432.092 96.9414 437.486L98.8117 438.194ZM107.013 424.836C110.52 421.018 114.647 418.059 119.401 415.954L118.592 414.126C113.586 416.341 109.233 419.462 105.54 423.484L107.013 424.836ZM119.396 415.957C124.218 413.857 129.521 412.8 135.317 412.8V410.8C129.272 410.8 123.695 411.903 118.597 414.123L119.396 415.957ZM135.317 412.8C141.03 412.8 146.293 413.856 151.117 415.957L151.916 414.123C146.82 411.904 141.283 410.8 135.317 410.8V412.8ZM151.117 415.957C155.952 418.062 160.116 421.021 163.62 424.836L165.093 423.484C161.397 419.459 157.002 416.338 151.916 414.123L151.117 415.957ZM163.627 424.844C167.131 428.582 169.864 433.028 171.821 438.194L173.692 437.486C171.649 432.092 168.782 427.418 165.086 423.476L163.627 424.844ZM171.823 438.199C173.774 443.271 174.757 448.868 174.757 455H176.757C176.757 448.652 175.739 442.808 173.69 437.481L171.823 438.199ZM166.437 455C166.437 448.303 165.088 442.34 162.362 437.136L160.591 438.064C163.145 442.94 164.437 448.577 164.437 455H166.437ZM162.368 437.147C159.733 431.959 156.096 427.861 151.457 424.879L150.376 426.561C154.697 429.339 158.1 433.161 160.585 438.053L162.368 437.147ZM151.457 424.879C146.798 421.884 141.406 420.4 135.317 420.4V422.4C141.067 422.4 146.075 423.796 150.376 426.561L151.457 424.879ZM135.317 420.4C129.227 420.4 123.798 421.884 119.063 424.875L120.131 426.565C124.515 423.796 129.566 422.4 135.317 422.4V420.4ZM119.056 424.879C114.417 427.861 110.78 431.959 108.145 437.147L109.928 438.053C112.413 433.161 115.816 429.339 120.137 426.561L119.056 424.879ZM108.145 437.147C105.503 442.348 104.197 448.308 104.197 455H106.197C106.197 448.572 107.45 442.932 109.928 438.053L108.145 437.147ZM104.197 455C104.197 461.615 105.504 467.571 108.142 472.847L109.931 471.953C107.449 466.989 106.197 461.345 106.197 455H104.197ZM108.145 472.853C110.78 478.041 114.417 482.139 119.056 485.121L120.137 483.439C115.816 480.661 112.413 476.839 109.928 471.947L108.145 472.853ZM119.063 485.125C123.798 488.116 129.227 489.6 135.317 489.6V487.6C129.566 487.6 124.515 486.204 120.131 483.435L119.063 485.125ZM135.317 489.6C141.406 489.6 146.798 488.116 151.457 485.121L150.376 483.439C146.075 486.204 141.067 487.6 135.317 487.6V489.6ZM151.457 485.121C156.096 482.139 159.733 478.041 162.368 472.853L160.585 471.947C158.1 476.839 154.697 480.661 150.376 483.439L151.457 485.121ZM162.365 472.858C165.087 467.58 166.437 461.619 166.437 455H164.437C164.437 461.341 163.146 466.98 160.588 471.942L162.365 472.858ZM257.077 414.32L256.337 414.993L256.353 415.01L256.37 415.027L257.077 414.32ZM256.837 495.68L257.513 496.417L257.529 496.402L257.544 496.387L256.837 495.68ZM251.197 496.64L250.791 497.554L250.835 497.573L250.881 497.589L251.197 496.64ZM249.517 495.44L248.72 496.043L248.734 496.062L248.749 496.08L249.517 495.44ZM198.157 427.52L197.643 426.662L196.688 427.235L197.36 428.123L198.157 427.52ZM200.557 426.08H201.557V424.314L200.043 425.223L200.557 426.08ZM199.237 495.8L199.944 496.507V496.507L199.237 495.8ZM192.877 495.8L192.137 496.473L192.153 496.49L192.17 496.507L192.877 495.8ZM192.997 414.32L192.321 413.583L192.305 413.598L192.29 413.613L192.997 414.32ZM198.517 413.48L198.111 414.394L198.169 414.42L198.23 414.438L198.517 413.48ZM200.317 414.68L199.503 415.261L199.511 415.272L199.52 415.283L200.317 414.68ZM250.957 481.64L251.733 482.271L252.228 481.662L251.755 481.037L250.957 481.64ZM249.397 483.56H248.397V486.377L250.173 484.191L249.397 483.56ZM250.597 414.32L251.304 415.027V415.027L250.597 414.32ZM253.837 414C254.96 414 255.755 414.352 256.337 414.993L257.817 413.647C256.8 412.528 255.434 412 253.837 412V414ZM256.37 415.027C256.957 415.614 257.277 416.387 257.277 417.44H259.277C259.277 415.933 258.797 414.626 257.784 413.613L256.37 415.027ZM257.277 417.44V491.96H259.277V417.44H257.277ZM257.277 491.96C257.277 493.249 256.879 494.224 256.13 494.973L257.544 496.387C258.715 495.216 259.277 493.711 259.277 491.96H257.277ZM256.161 494.943C255.395 495.646 254.479 496 253.357 496V498C254.955 498 256.36 497.474 257.513 496.417L256.161 494.943ZM253.357 496C252.75 496 252.137 495.899 251.513 495.691L250.881 497.589C251.697 497.861 252.524 498 253.357 498V496ZM251.603 495.726C250.988 495.453 250.565 495.135 250.285 494.8L248.749 496.08C249.269 496.705 249.967 497.187 250.791 497.554L251.603 495.726ZM250.315 494.837L198.955 426.917L197.36 428.123L248.72 496.043L250.315 494.837ZM198.672 428.377L201.072 426.937L200.043 425.223L197.643 426.662L198.672 428.377ZM199.557 426.08V492.56H201.557V426.08H199.557ZM199.557 492.56C199.557 493.583 199.217 494.406 198.53 495.093L199.944 496.507C201.018 495.434 201.557 494.097 201.557 492.56H199.557ZM198.53 495.093C197.955 495.668 197.149 496 195.997 496V498C197.565 498 198.92 497.532 199.944 496.507L198.53 495.093ZM195.997 496C194.944 496 194.172 495.68 193.584 495.093L192.17 496.507C193.183 497.52 194.49 498 195.997 498V496ZM193.617 495.127C192.998 494.446 192.677 493.612 192.677 492.56H190.677C190.677 494.068 191.157 495.394 192.137 496.473L193.617 495.127ZM192.677 492.56V417.8H190.677V492.56H192.677ZM192.677 417.8C192.677 416.58 193.041 415.69 193.704 415.027L192.29 413.613C191.193 414.71 190.677 416.14 190.677 417.8H192.677ZM193.673 415.057C194.452 414.343 195.332 414 196.357 414V412C194.822 412 193.462 412.537 192.321 413.583L193.673 415.057ZM196.357 414C196.925 414 197.507 414.125 198.111 414.394L198.923 412.566C198.088 412.195 197.23 412 196.357 412V414ZM198.23 414.438C198.864 414.628 199.258 414.918 199.503 415.261L201.131 414.099C200.576 413.322 199.77 412.812 198.805 412.522L198.23 414.438ZM199.52 415.283L250.16 482.243L251.755 481.037L201.115 414.077L199.52 415.283ZM250.181 481.009L248.621 482.929L250.173 484.191L251.733 482.271L250.181 481.009ZM250.397 483.56V417.44H248.397V483.56H250.397ZM250.397 417.44C250.397 416.387 250.717 415.614 251.304 415.027L249.89 413.613C248.877 414.626 248.397 415.933 248.397 417.44H250.397ZM251.304 415.027C251.991 414.341 252.814 414 253.837 414V412C252.3 412 250.964 412.539 249.89 413.613L251.304 415.027ZM344.733 414.32L343.993 414.993L344.009 415.01L344.026 415.027L344.733 414.32ZM344.493 495.68L345.169 496.417L345.185 496.402L345.201 496.387L344.493 495.68ZM338.853 496.64L338.447 497.554L338.491 497.573L338.537 497.589L338.853 496.64ZM337.173 495.44L336.376 496.043L336.39 496.062L336.405 496.08L337.173 495.44ZM285.813 427.52L285.299 426.662L284.344 427.235L285.016 428.123L285.813 427.52ZM288.213 426.08H289.213V424.314L287.699 425.223L288.213 426.08ZM286.893 495.8L287.601 496.507V496.507L286.893 495.8ZM280.533 495.8L279.793 496.473L279.81 496.49L279.826 496.507L280.533 495.8ZM280.653 414.32L279.978 413.583L279.962 413.598L279.946 413.613L280.653 414.32ZM286.173 413.48L285.767 414.394L285.825 414.42L285.886 414.438L286.173 413.48ZM287.973 414.68L287.16 415.261L287.168 415.272L287.176 415.283L287.973 414.68ZM338.613 481.64L339.39 482.271L339.884 481.662L339.411 481.037L338.613 481.64ZM337.053 483.56H336.053V486.377L337.83 484.191L337.053 483.56ZM338.253 414.32L338.961 415.027V415.027L338.253 414.32ZM341.493 414C342.616 414 343.411 414.352 343.993 414.993L345.473 413.647C344.456 412.528 343.091 412 341.493 412V414ZM344.026 415.027C344.614 415.614 344.933 416.387 344.933 417.44H346.933C346.933 415.933 346.453 414.626 345.441 413.613L344.026 415.027ZM344.933 417.44V491.96H346.933V417.44H344.933ZM344.933 491.96C344.933 493.249 344.536 494.224 343.786 494.973L345.201 496.387C346.371 495.216 346.933 493.711 346.933 491.96H344.933ZM343.818 494.943C343.051 495.646 342.135 496 341.013 496V498C342.611 498 344.016 497.474 345.169 496.417L343.818 494.943ZM341.013 496C340.407 496 339.793 495.899 339.17 495.691L338.537 497.589C339.354 497.861 340.18 498 341.013 498V496ZM339.26 495.726C338.644 495.453 338.221 495.135 337.942 494.8L336.405 496.08C336.926 496.705 337.623 497.187 338.447 497.554L339.26 495.726ZM337.971 494.837L286.611 426.917L285.016 428.123L336.376 496.043L337.971 494.837ZM286.328 428.377L288.728 426.937L287.699 425.223L285.299 426.662L286.328 428.377ZM287.213 426.08V492.56H289.213V426.08H287.213ZM287.213 492.56C287.213 493.583 286.873 494.406 286.186 495.093L287.601 496.507C288.674 495.434 289.213 494.097 289.213 492.56H287.213ZM286.186 495.093C285.611 495.668 284.806 496 283.653 496V498C285.221 498 286.576 497.532 287.601 496.507L286.186 495.093ZM283.653 496C282.601 496 281.828 495.68 281.241 495.093L279.826 496.507C280.839 497.52 282.146 498 283.653 498V496ZM281.273 495.127C280.654 494.446 280.333 493.612 280.333 492.56H278.333C278.333 494.068 278.813 495.394 279.793 496.473L281.273 495.127ZM280.333 492.56V417.8H278.333V492.56H280.333ZM280.333 417.8C280.333 416.58 280.698 415.69 281.361 415.027L279.946 413.613C278.849 414.71 278.333 416.14 278.333 417.8H280.333ZM281.329 415.057C282.108 414.343 282.988 414 284.013 414V412C282.478 412 281.119 412.537 279.978 413.583L281.329 415.057ZM284.013 414C284.581 414 285.163 414.125 285.767 414.394L286.58 412.566C285.744 412.195 284.886 412 284.013 412V414ZM285.886 414.438C286.52 414.628 286.914 414.918 287.16 415.261L288.787 414.099C288.233 413.322 287.426 412.812 286.461 412.522L285.886 414.438ZM287.176 415.283L337.816 482.243L339.411 481.037L288.771 414.077L287.176 415.283ZM337.837 481.009L336.277 482.929L337.83 484.191L339.39 482.271L337.837 481.009ZM338.053 483.56V417.44H336.053V483.56H338.053ZM338.053 417.44C338.053 416.387 338.373 415.614 338.961 415.027L337.546 413.613C336.534 414.626 336.053 415.933 336.053 417.44H338.053ZM338.961 415.027C339.647 414.341 340.47 414 341.493 414V412C339.957 412 338.62 412.539 337.546 413.613L338.961 415.027ZM396.03 425.48L396.955 425.86L397.495 424.546L396.075 424.481L396.03 425.48ZM367.83 494.12L366.905 493.74L366.892 493.771L366.881 493.804L367.83 494.12ZM366.15 496.4L365.576 495.581L366.15 496.4ZM360.27 496.04L359.526 496.709L360.27 496.04ZM359.19 493.16H360.19V493.089L360.18 493.019L359.19 493.16ZM359.43 491.36L358.505 490.98L358.499 490.994L358.493 491.009L359.43 491.36ZM390.51 415.76L391.435 416.14L391.444 416.118L391.451 416.096L390.51 415.76ZM392.31 413.36L392.824 414.217L392.835 414.211L392.847 414.204L392.31 413.36ZM395.19 412.64L395.113 413.637L395.151 413.64H395.19V412.64ZM397.95 413.48L397.376 414.299L397.394 414.312L397.413 414.324L397.95 413.48ZM399.75 415.76L398.801 416.076L398.812 416.11L398.826 416.142L399.75 415.76ZM430.71 490.64L431.646 490.289L431.64 490.273L431.634 490.258L430.71 490.64ZM429.63 496.04L430.27 496.808L430.288 496.793L430.305 496.777L429.63 496.04ZM423.75 496.4L424.323 495.581L423.75 496.4ZM421.95 494L422.883 493.641L422.878 493.628L422.873 493.616L421.95 494ZM393.39 425.36L393.435 424.361L391.861 424.289L392.466 425.744L393.39 425.36ZM373.83 474.56L372.913 474.16L372.303 475.56H373.83V474.56ZM377.91 465.2V464.2H377.255L376.993 464.8L377.91 465.2ZM413.55 465.2L414.532 465.011L414.376 464.2H413.55V465.2ZM415.35 474.56V475.56H416.56L416.332 474.371L415.35 474.56ZM395.105 425.1L366.905 493.74L368.755 494.5L396.955 425.86L395.105 425.1ZM366.881 493.804C366.626 494.568 366.194 495.149 365.576 495.581L366.723 497.219C367.706 496.531 368.393 495.592 368.778 494.436L366.881 493.804ZM365.576 495.581C364.925 496.037 364.282 496.24 363.63 496.24V498.24C364.737 498.24 365.774 497.883 366.723 497.219L365.576 495.581ZM363.63 496.24C362.273 496.24 361.476 495.885 361.013 495.371L359.526 496.709C360.504 497.795 361.946 498.24 363.63 498.24V496.24ZM361.013 495.371C360.465 494.763 360.19 494.044 360.19 493.16H358.19C358.19 494.516 358.634 495.717 359.526 496.709L361.013 495.371ZM360.18 493.019C360.128 492.656 360.173 492.227 360.366 491.711L358.493 491.009C358.207 491.773 358.092 492.544 358.2 493.301L360.18 493.019ZM360.355 491.74L391.435 416.14L389.585 415.38L358.505 490.98L360.355 491.74ZM391.451 416.096C391.795 415.133 392.272 414.549 392.824 414.217L391.795 412.503C390.747 413.131 390.024 414.147 389.568 415.424L391.451 416.096ZM392.847 414.204C393.544 413.76 394.289 413.574 395.113 413.637L395.266 411.643C394.011 411.546 392.835 411.84 391.773 412.516L392.847 414.204ZM395.19 413.64C396.039 413.64 396.755 413.865 397.376 414.299L398.523 412.661C397.544 411.975 396.421 411.64 395.19 411.64V413.64ZM397.413 414.324C398.106 414.764 398.556 415.341 398.801 416.076L400.698 415.444C400.303 414.259 399.554 413.316 398.487 412.636L397.413 414.324ZM398.826 416.142L429.786 491.022L431.634 490.258L400.674 415.378L398.826 416.142ZM429.773 490.991C429.974 491.527 430.07 492.048 430.07 492.56H432.07C432.07 491.792 431.925 491.033 431.646 490.289L429.773 490.991ZM430.07 492.56C430.07 493.753 429.684 494.633 428.954 495.303L430.305 496.777C431.495 495.687 432.07 494.247 432.07 492.56H430.07ZM428.99 495.272C428.201 495.929 427.345 496.24 426.39 496.24V498.24C427.834 498.24 429.138 497.751 430.27 496.808L428.99 495.272ZM426.39 496.24C425.639 496.24 424.958 496.025 424.323 495.581L423.176 497.219C424.141 497.895 425.221 498.24 426.39 498.24V496.24ZM424.323 495.581C423.708 495.15 423.222 494.522 422.883 493.641L421.016 494.359C421.477 495.558 422.191 496.53 423.176 497.219L424.323 495.581ZM422.873 493.616L394.313 424.976L392.466 425.744L421.026 494.384L422.873 493.616ZM393.344 426.359L395.984 426.479L396.075 424.481L393.435 424.361L393.344 426.359ZM374.746 474.96L378.826 465.6L376.993 464.8L372.913 474.16L374.746 474.96ZM377.91 466.2H413.55V464.2H377.91V466.2ZM412.568 465.389L414.368 474.749L416.332 474.371L414.532 465.011L412.568 465.389ZM415.35 473.56H373.83V475.56H415.35V473.56Z" fill="#F5F5DC" mask="url(#path-2-outside-1_9_23)"/>
<mask id="path-4-outside-2_9_23" maskUnits="userSpaceOnUse" x="105" y="515" width="226" height="62" fill="black">
<rect fill="white" x="105" y="515" width="226" height="62"/>
<path d="M126.617 533.8C129.017 533.8 131.257 534.067 133.337 534.6C135.47 535.133 137.177 535.853 138.457 536.76C139.79 537.613 140.457 538.52 140.457 539.48C140.457 539.853 140.297 540.227 139.977 540.6C139.71 540.92 139.364 541.08 138.937 541.08C138.35 541.08 137.87 540.92 137.497 540.6C137.177 540.28 136.83 539.907 136.457 539.48C136.084 539 135.497 538.573 134.697 538.2C133.95 537.827 132.884 537.507 131.497 537.24C130.164 536.973 128.51 536.84 126.537 536.84C123.444 536.84 120.617 537.64 118.057 539.24C115.497 540.84 113.444 543 111.897 545.72C110.404 548.387 109.657 551.4 109.657 554.76C109.657 558.173 110.35 561.24 111.737 563.96C113.177 566.68 115.15 568.84 117.657 570.44C120.217 571.987 123.177 572.76 126.537 572.76C128.937 572.76 130.75 572.547 131.977 572.12C133.257 571.64 134.35 571.133 135.257 570.6C136.377 569.96 137.15 569.347 137.577 568.76C138.004 568.173 138.51 567.88 139.097 567.88C139.524 567.88 139.844 568.013 140.057 568.28C140.324 568.547 140.457 568.893 140.457 569.32C140.457 569.96 139.87 570.813 138.697 571.88C137.524 572.893 135.87 573.8 133.737 574.6C131.657 575.4 129.177 575.8 126.297 575.8C122.404 575.8 118.964 574.893 115.977 573.08C112.99 571.213 110.644 568.707 108.937 565.56C107.284 562.36 106.457 558.76 106.457 554.76C106.457 551.027 107.284 547.587 108.937 544.44C110.644 541.24 112.99 538.68 115.977 536.76C119.017 534.787 122.564 533.8 126.617 533.8ZM187.225 554.84C187.225 558.787 186.372 562.36 184.665 565.56C182.958 568.707 180.612 571.213 177.625 573.08C174.692 574.893 171.332 575.8 167.545 575.8C163.812 575.8 160.452 574.893 157.465 573.08C154.478 571.213 152.105 568.707 150.345 565.56C148.638 562.36 147.785 558.787 147.785 554.84C147.785 550.84 148.638 547.267 150.345 544.12C152.105 540.92 154.478 538.413 157.465 536.6C160.452 534.733 163.812 533.8 167.545 533.8C171.332 533.8 174.692 534.733 177.625 536.6C180.612 538.413 182.958 540.92 184.665 544.12C186.372 547.267 187.225 550.84 187.225 554.84ZM184.025 554.84C184.025 551.373 183.305 548.307 181.865 545.64C180.478 542.92 178.532 540.787 176.025 539.24C173.572 537.64 170.745 536.84 167.545 536.84C164.398 536.84 161.572 537.64 159.065 539.24C156.558 540.787 154.585 542.92 153.145 545.64C151.705 548.307 150.985 551.373 150.985 554.84C150.985 558.253 151.705 561.32 153.145 564.04C154.585 566.707 156.558 568.84 159.065 570.44C161.572 571.987 164.398 572.76 167.545 572.76C170.745 572.76 173.572 571.987 176.025 570.44C178.532 568.84 180.478 566.707 181.865 564.04C183.305 561.32 184.025 558.253 184.025 554.84ZM210.479 516.2C211.119 516.2 211.866 516.253 212.719 516.36C213.626 516.467 214.399 516.68 215.039 517C215.733 517.32 216.079 517.8 216.079 518.44C216.079 518.813 215.919 519.187 215.599 519.56C215.333 519.88 214.986 520.04 214.559 520.04C214.026 520.04 213.386 519.88 212.639 519.56C211.893 519.24 211.066 519.08 210.159 519.08C209.093 519.08 208.133 519.32 207.279 519.8C206.479 520.28 205.839 521.027 205.359 522.04C204.933 523 204.719 524.253 204.719 525.8V573.4C204.719 573.827 204.559 574.2 204.239 574.52C203.919 574.84 203.546 575 203.119 575C202.639 575 202.239 574.84 201.919 574.52C201.653 574.2 201.519 573.827 201.519 573.4V525.8C201.519 522.493 202.399 520.067 204.159 518.52C205.919 516.973 208.026 516.2 210.479 516.2ZM214.159 535.56C214.586 535.56 214.933 535.72 215.199 536.04C215.519 536.307 215.679 536.653 215.679 537.08C215.679 537.507 215.519 537.88 215.199 538.2C214.933 538.467 214.586 538.6 214.159 538.6H195.119C194.746 538.6 194.399 538.44 194.079 538.12C193.759 537.8 193.599 537.453 193.599 537.08C193.599 536.6 193.759 536.227 194.079 535.96C194.399 535.693 194.746 535.56 195.119 535.56H214.159ZM237.199 516.2C237.839 516.2 238.586 516.253 239.439 516.36C240.346 516.467 241.119 516.68 241.759 517C242.453 517.32 242.799 517.8 242.799 518.44C242.799 518.813 242.639 519.187 242.319 519.56C242.053 519.88 241.706 520.04 241.279 520.04C240.746 520.04 240.106 519.88 239.359 519.56C238.613 519.24 237.786 519.08 236.879 519.08C235.813 519.08 234.853 519.32 233.999 519.8C233.199 520.28 232.559 521.027 232.079 522.04C231.653 523 231.439 524.253 231.439 525.8V573.4C231.439 573.827 231.279 574.2 230.959 574.52C230.639 574.84 230.266 575 229.839 575C229.359 575 228.959 574.84 228.639 574.52C228.373 574.2 228.239 573.827 228.239 573.4V525.8C228.239 522.493 229.119 520.067 230.879 518.52C232.639 516.973 234.746 516.2 237.199 516.2ZM240.879 535.56C241.306 535.56 241.653 535.72 241.919 536.04C242.239 536.307 242.399 536.653 242.399 537.08C242.399 537.507 242.239 537.88 241.919 538.2C241.653 538.467 241.306 538.6 240.879 538.6H221.839C221.466 538.6 221.119 538.44 220.799 538.12C220.479 537.8 220.319 537.453 220.319 537.08C220.319 536.6 220.479 536.227 220.799 535.96C221.119 535.693 221.466 535.56 221.839 535.56H240.879ZM269.437 575.8C265.437 575.8 261.89 574.947 258.797 573.24C255.757 571.533 253.357 569.133 251.597 566.04C249.837 562.893 248.957 559.213 248.957 555C248.957 550.52 249.81 546.707 251.517 543.56C253.277 540.413 255.517 538.013 258.237 536.36C261.01 534.653 263.944 533.8 267.037 533.8C269.277 533.8 271.464 534.173 273.597 534.92C275.73 535.613 277.624 536.733 279.277 538.28C280.984 539.773 282.344 541.667 283.357 543.96C284.424 546.2 285.01 548.893 285.117 552.04C285.117 552.467 284.957 552.867 284.637 553.24C284.317 553.56 283.944 553.72 283.517 553.72H250.877L250.397 550.68H282.637L281.837 551.4V549.96C281.57 547.133 280.664 544.76 279.117 542.84C277.624 540.92 275.81 539.48 273.677 538.52C271.544 537.507 269.33 537 267.037 537C265.437 537 263.757 537.373 261.997 538.12C260.237 538.813 258.61 539.907 257.117 541.4C255.624 542.84 254.397 544.68 253.437 546.92C252.53 549.16 252.077 551.773 252.077 554.76C252.077 558.013 252.717 561 253.997 563.72C255.33 566.44 257.277 568.627 259.837 570.28C262.45 571.933 265.65 572.76 269.437 572.76C271.25 572.76 272.957 572.467 274.557 571.88C276.157 571.24 277.597 570.413 278.877 569.4C280.157 568.387 281.197 567.293 281.997 566.12C282.424 565.64 282.877 565.4 283.357 565.4C283.73 565.4 284.05 565.56 284.317 565.88C284.584 566.147 284.717 566.467 284.717 566.84C284.717 567.213 284.61 567.533 284.397 567.8C282.744 569.933 280.61 571.8 277.997 573.4C275.437 575 272.584 575.8 269.437 575.8ZM313.89 575.8C309.89 575.8 306.343 574.947 303.25 573.24C300.21 571.533 297.81 569.133 296.05 566.04C294.29 562.893 293.41 559.213 293.41 555C293.41 550.52 294.263 546.707 295.97 543.56C297.73 540.413 299.97 538.013 302.69 536.36C305.463 534.653 308.397 533.8 311.49 533.8C313.73 533.8 315.917 534.173 318.05 534.92C320.183 535.613 322.077 536.733 323.73 538.28C325.437 539.773 326.797 541.667 327.81 543.96C328.877 546.2 329.463 548.893 329.57 552.04C329.57 552.467 329.41 552.867 329.09 553.24C328.77 553.56 328.397 553.72 327.97 553.72H295.33L294.85 550.68H327.09L326.29 551.4V549.96C326.023 547.133 325.117 544.76 323.57 542.84C322.077 540.92 320.263 539.48 318.13 538.52C315.997 537.507 313.783 537 311.49 537C309.89 537 308.21 537.373 306.45 538.12C304.69 538.813 303.063 539.907 301.57 541.4C300.077 542.84 298.85 544.68 297.89 546.92C296.983 549.16 296.53 551.773 296.53 554.76C296.53 558.013 297.17 561 298.45 563.72C299.783 566.44 301.73 568.627 304.29 570.28C306.903 571.933 310.103 572.76 313.89 572.76C315.703 572.76 317.41 572.467 319.01 571.88C320.61 571.24 322.05 570.413 323.33 569.4C324.61 568.387 325.65 567.293 326.45 566.12C326.877 565.64 327.33 565.4 327.81 565.4C328.183 565.4 328.503 565.56 328.77 565.88C329.037 566.147 329.17 566.467 329.17 566.84C329.17 567.213 329.063 567.533 328.85 567.8C327.197 569.933 325.063 571.8 322.45 573.4C319.89 575 317.037 575.8 313.89 575.8Z"/>
</mask>
<path d="M126.617 533.8C129.017 533.8 131.257 534.067 133.337 534.6C135.47 535.133 137.177 535.853 138.457 536.76C139.79 537.613 140.457 538.52 140.457 539.48C140.457 539.853 140.297 540.227 139.977 540.6C139.71 540.92 139.364 541.08 138.937 541.08C138.35 541.08 137.87 540.92 137.497 540.6C137.177 540.28 136.83 539.907 136.457 539.48C136.084 539 135.497 538.573 134.697 538.2C133.95 537.827 132.884 537.507 131.497 537.24C130.164 536.973 128.51 536.84 126.537 536.84C123.444 536.84 120.617 537.64 118.057 539.24C115.497 540.84 113.444 543 111.897 545.72C110.404 548.387 109.657 551.4 109.657 554.76C109.657 558.173 110.35 561.24 111.737 563.96C113.177 566.68 115.15 568.84 117.657 570.44C120.217 571.987 123.177 572.76 126.537 572.76C128.937 572.76 130.75 572.547 131.977 572.12C133.257 571.64 134.35 571.133 135.257 570.6C136.377 569.96 137.15 569.347 137.577 568.76C138.004 568.173 138.51 567.88 139.097 567.88C139.524 567.88 139.844 568.013 140.057 568.28C140.324 568.547 140.457 568.893 140.457 569.32C140.457 569.96 139.87 570.813 138.697 571.88C137.524 572.893 135.87 573.8 133.737 574.6C131.657 575.4 129.177 575.8 126.297 575.8C122.404 575.8 118.964 574.893 115.977 573.08C112.99 571.213 110.644 568.707 108.937 565.56C107.284 562.36 106.457 558.76 106.457 554.76C106.457 551.027 107.284 547.587 108.937 544.44C110.644 541.24 112.99 538.68 115.977 536.76C119.017 534.787 122.564 533.8 126.617 533.8ZM187.225 554.84C187.225 558.787 186.372 562.36 184.665 565.56C182.958 568.707 180.612 571.213 177.625 573.08C174.692 574.893 171.332 575.8 167.545 575.8C163.812 575.8 160.452 574.893 157.465 573.08C154.478 571.213 152.105 568.707 150.345 565.56C148.638 562.36 147.785 558.787 147.785 554.84C147.785 550.84 148.638 547.267 150.345 544.12C152.105 540.92 154.478 538.413 157.465 536.6C160.452 534.733 163.812 533.8 167.545 533.8C171.332 533.8 174.692 534.733 177.625 536.6C180.612 538.413 182.958 540.92 184.665 544.12C186.372 547.267 187.225 550.84 187.225 554.84ZM184.025 554.84C184.025 551.373 183.305 548.307 181.865 545.64C180.478 542.92 178.532 540.787 176.025 539.24C173.572 537.64 170.745 536.84 167.545 536.84C164.398 536.84 161.572 537.64 159.065 539.24C156.558 540.787 154.585 542.92 153.145 545.64C151.705 548.307 150.985 551.373 150.985 554.84C150.985 558.253 151.705 561.32 153.145 564.04C154.585 566.707 156.558 568.84 159.065 570.44C161.572 571.987 164.398 572.76 167.545 572.76C170.745 572.76 173.572 571.987 176.025 570.44C178.532 568.84 180.478 566.707 181.865 564.04C183.305 561.32 184.025 558.253 184.025 554.84ZM210.479 516.2C211.119 516.2 211.866 516.253 212.719 516.36C213.626 516.467 214.399 516.68 215.039 517C215.733 517.32 216.079 517.8 216.079 518.44C216.079 518.813 215.919 519.187 215.599 519.56C215.333 519.88 214.986 520.04 214.559 520.04C214.026 520.04 213.386 519.88 212.639 519.56C211.893 519.24 211.066 519.08 210.159 519.08C209.093 519.08 208.133 519.32 207.279 519.8C206.479 520.28 205.839 521.027 205.359 522.04C204.933 523 204.719 524.253 204.719 525.8V573.4C204.719 573.827 204.559 574.2 204.239 574.52C203.919 574.84 203.546 575 203.119 575C202.639 575 202.239 574.84 201.919 574.52C201.653 574.2 201.519 573.827 201.519 573.4V525.8C201.519 522.493 202.399 520.067 204.159 518.52C205.919 516.973 208.026 516.2 210.479 516.2ZM214.159 535.56C214.586 535.56 214.933 535.72 215.199 536.04C215.519 536.307 215.679 536.653 215.679 537.08C215.679 537.507 215.519 537.88 215.199 538.2C214.933 538.467 214.586 538.6 214.159 538.6H195.119C194.746 538.6 194.399 538.44 194.079 538.12C193.759 537.8 193.599 537.453 193.599 537.08C193.599 536.6 193.759 536.227 194.079 535.96C194.399 535.693 194.746 535.56 195.119 535.56H214.159ZM237.199 516.2C237.839 516.2 238.586 516.253 239.439 516.36C240.346 516.467 241.119 516.68 241.759 517C242.453 517.32 242.799 517.8 242.799 518.44C242.799 518.813 242.639 519.187 242.319 519.56C242.053 519.88 241.706 520.04 241.279 520.04C240.746 520.04 240.106 519.88 239.359 519.56C238.613 519.24 237.786 519.08 236.879 519.08C235.813 519.08 234.853 519.32 233.999 519.8C233.199 520.28 232.559 521.027 232.079 522.04C231.653 523 231.439 524.253 231.439 525.8V573.4C231.439 573.827 231.279 574.2 230.959 574.52C230.639 574.84 230.266 575 229.839 575C229.359 575 228.959 574.84 228.639 574.52C228.373 574.2 228.239 573.827 228.239 573.4V525.8C228.239 522.493 229.119 520.067 230.879 518.52C232.639 516.973 234.746 516.2 237.199 516.2ZM240.879 535.56C241.306 535.56 241.653 535.72 241.919 536.04C242.239 536.307 242.399 536.653 242.399 537.08C242.399 537.507 242.239 537.88 241.919 538.2C241.653 538.467 241.306 538.6 240.879 538.6H221.839C221.466 538.6 221.119 538.44 220.799 538.12C220.479 537.8 220.319 537.453 220.319 537.08C220.319 536.6 220.479 536.227 220.799 535.96C221.119 535.693 221.466 535.56 221.839 535.56H240.879ZM269.437 575.8C265.437 575.8 261.89 574.947 258.797 573.24C255.757 571.533 253.357 569.133 251.597 566.04C249.837 562.893 248.957 559.213 248.957 555C248.957 550.52 249.81 546.707 251.517 543.56C253.277 540.413 255.517 538.013 258.237 536.36C261.01 534.653 263.944 533.8 267.037 533.8C269.277 533.8 271.464 534.173 273.597 534.92C275.73 535.613 277.624 536.733 279.277 538.28C280.984 539.773 282.344 541.667 283.357 543.96C284.424 546.2 285.01 548.893 285.117 552.04C285.117 552.467 284.957 552.867 284.637 553.24C284.317 553.56 283.944 553.72 283.517 553.72H250.877L250.397 550.68H282.637L281.837 551.4V549.96C281.57 547.133 280.664 544.76 279.117 542.84C277.624 540.92 275.81 539.48 273.677 538.52C271.544 537.507 269.33 537 267.037 537C265.437 537 263.757 537.373 261.997 538.12C260.237 538.813 258.61 539.907 257.117 541.4C255.624 542.84 254.397 544.68 253.437 546.92C252.53 549.16 252.077 551.773 252.077 554.76C252.077 558.013 252.717 561 253.997 563.72C255.33 566.44 257.277 568.627 259.837 570.28C262.45 571.933 265.65 572.76 269.437 572.76C271.25 572.76 272.957 572.467 274.557 571.88C276.157 571.24 277.597 570.413 278.877 569.4C280.157 568.387 281.197 567.293 281.997 566.12C282.424 565.64 282.877 565.4 283.357 565.4C283.73 565.4 284.05 565.56 284.317 565.88C284.584 566.147 284.717 566.467 284.717 566.84C284.717 567.213 284.61 567.533 284.397 567.8C282.744 569.933 280.61 571.8 277.997 573.4C275.437 575 272.584 575.8 269.437 575.8ZM313.89 575.8C309.89 575.8 306.343 574.947 303.25 573.24C300.21 571.533 297.81 569.133 296.05 566.04C294.29 562.893 293.41 559.213 293.41 555C293.41 550.52 294.263 546.707 295.97 543.56C297.73 540.413 299.97 538.013 302.69 536.36C305.463 534.653 308.397 533.8 311.49 533.8C313.73 533.8 315.917 534.173 318.05 534.92C320.183 535.613 322.077 536.733 323.73 538.28C325.437 539.773 326.797 541.667 327.81 543.96C328.877 546.2 329.463 548.893 329.57 552.04C329.57 552.467 329.41 552.867 329.09 553.24C328.77 553.56 328.397 553.72 327.97 553.72H295.33L294.85 550.68H327.09L326.29 551.4V549.96C326.023 547.133 325.117 544.76 323.57 542.84C322.077 540.92 320.263 539.48 318.13 538.52C315.997 537.507 313.783 537 311.49 537C309.89 537 308.21 537.373 306.45 538.12C304.69 538.813 303.063 539.907 301.57 541.4C300.077 542.84 298.85 544.68 297.89 546.92C296.983 549.16 296.53 551.773 296.53 554.76C296.53 558.013 297.17 561 298.45 563.72C299.783 566.44 301.73 568.627 304.29 570.28C306.903 571.933 310.103 572.76 313.89 572.76C315.703 572.76 317.41 572.467 319.01 571.88C320.61 571.24 322.05 570.413 323.33 569.4C324.61 568.387 325.65 567.293 326.45 566.12C326.877 565.64 327.33 565.4 327.81 565.4C328.183 565.4 328.503 565.56 328.77 565.88C329.037 566.147 329.17 566.467 329.17 566.84C329.17 567.213 329.063 567.533 328.85 567.8C327.197 569.933 325.063 571.8 322.45 573.4C319.89 575 317.037 575.8 313.89 575.8Z" fill="#F5F5DC"/>
<path d="M133.337 534.6L133.088 535.569L133.094 535.57L133.337 534.6ZM138.457 536.76L137.879 537.576L137.898 537.59L137.918 537.602L138.457 536.76ZM139.977 540.6L139.218 539.949L139.209 539.96L139.977 540.6ZM137.497 540.6L136.79 541.307L136.817 541.334L136.846 541.359L137.497 540.6ZM136.457 539.48L135.668 540.094L135.685 540.117L135.704 540.139L136.457 539.48ZM134.697 538.2L134.25 539.094L134.262 539.1L134.274 539.106L134.697 538.2ZM131.497 537.24L131.301 538.221L131.308 538.222L131.497 537.24ZM118.057 539.24L118.587 540.088L118.057 539.24ZM111.897 545.72L111.028 545.226L111.024 545.231L111.897 545.72ZM111.737 563.96L110.846 564.414L110.849 564.421L110.853 564.428L111.737 563.96ZM117.657 570.44L117.119 571.283L117.129 571.29L117.14 571.296L117.657 570.44ZM131.977 572.12L132.305 573.064L132.317 573.061L132.328 573.056L131.977 572.12ZM135.257 570.6L134.761 569.732L134.75 569.738L135.257 570.6ZM137.577 568.76L136.768 568.172L137.577 568.76ZM140.057 568.28L139.276 568.905L139.311 568.948L139.35 568.987L140.057 568.28ZM138.697 571.88L139.35 572.637L139.36 572.629L139.37 572.62L138.697 571.88ZM133.737 574.6L133.386 573.664L133.378 573.667L133.737 574.6ZM115.977 573.08L115.447 573.928L115.458 573.935L115.977 573.08ZM108.937 565.56L108.048 566.019L108.053 566.028L108.058 566.037L108.937 565.56ZM108.937 544.44L108.055 543.969L108.052 543.975L108.937 544.44ZM115.977 536.76L116.518 537.601L116.521 537.599L115.977 536.76ZM126.617 534.8C128.943 534.8 131.099 535.058 133.089 535.569L133.585 533.631C131.415 533.075 129.091 532.8 126.617 532.8V534.8ZM133.094 535.57C135.152 536.085 136.732 536.764 137.879 537.576L139.035 535.944C137.622 534.943 135.788 534.182 133.579 533.63L133.094 535.57ZM137.918 537.602C139.155 538.394 139.457 539.038 139.457 539.48H141.457C141.457 538.002 140.426 536.833 138.996 535.918L137.918 537.602ZM139.457 539.48C139.457 539.548 139.432 539.699 139.218 539.949L140.736 541.251C141.162 540.755 141.457 540.159 141.457 539.48H139.457ZM139.209 539.96C139.137 540.046 139.075 540.08 138.937 540.08V542.08C139.652 542.08 140.283 541.794 140.745 541.24L139.209 539.96ZM138.937 540.08C138.541 540.08 138.306 539.977 138.148 539.841L136.846 541.359C137.434 541.863 138.16 542.08 138.937 542.08V540.08ZM138.204 539.893C137.903 539.592 137.572 539.235 137.209 538.821L135.704 540.139C136.089 540.578 136.451 540.968 136.79 541.307L138.204 539.893ZM137.246 538.866C136.742 538.217 136.003 537.706 135.12 537.294L134.274 539.106C134.991 539.441 135.425 539.783 135.668 540.094L137.246 538.866ZM135.144 537.306C134.279 536.873 133.109 536.532 131.686 536.258L131.308 538.222C132.658 538.482 133.622 538.78 134.25 539.094L135.144 537.306ZM131.693 536.259C130.273 535.975 128.549 535.84 126.537 535.84V537.84C128.471 537.84 130.054 537.971 131.301 538.221L131.693 536.259ZM126.537 535.84C123.261 535.84 120.25 536.69 117.527 538.392L118.587 540.088C120.984 538.59 123.626 537.84 126.537 537.84V535.84ZM117.527 538.392C114.821 540.083 112.653 542.367 111.028 545.226L112.766 546.214C114.234 543.633 116.173 541.597 118.587 540.088L117.527 538.392ZM111.024 545.231C109.439 548.062 108.657 551.246 108.657 554.76H110.657C110.657 551.554 111.368 548.711 112.769 546.209L111.024 545.231ZM108.657 554.76C108.657 558.312 109.379 561.538 110.846 564.414L112.628 563.506C111.321 560.942 110.657 558.034 110.657 554.76H108.657ZM110.853 564.428C112.371 567.295 114.461 569.587 117.119 571.283L118.195 569.597C115.839 568.093 113.983 566.065 112.621 563.492L110.853 564.428ZM117.14 571.296C119.874 572.948 123.018 573.76 126.537 573.76V571.76C123.336 571.76 120.559 571.025 118.174 569.584L117.14 571.296ZM126.537 573.76C128.971 573.76 130.918 573.547 132.305 573.064L131.648 571.176C130.582 571.546 128.903 571.76 126.537 571.76V573.76ZM132.328 573.056C133.647 572.562 134.795 572.032 135.764 571.462L134.75 569.738C133.905 570.235 132.867 570.718 131.626 571.184L132.328 573.056ZM135.753 571.468C136.915 570.804 137.834 570.106 138.386 569.348L136.768 568.172C136.466 568.587 135.839 569.116 134.761 569.732L135.753 571.468ZM138.386 569.348C138.674 568.952 138.906 568.88 139.097 568.88V566.88C138.114 566.88 137.333 567.395 136.768 568.172L138.386 569.348ZM139.097 568.88C139.208 568.88 139.259 568.897 139.272 568.903C139.279 568.906 139.279 568.907 139.277 568.905C139.274 568.903 139.274 568.902 139.276 568.905L140.838 567.655C140.388 567.093 139.744 566.88 139.097 566.88V568.88ZM139.35 568.987C139.404 569.041 139.457 569.121 139.457 569.32H141.457C141.457 568.666 141.243 568.052 140.764 567.573L139.35 568.987ZM139.457 569.32C139.457 569.348 139.436 569.519 139.193 569.873C138.96 570.213 138.581 570.634 138.024 571.14L139.37 572.62C139.986 572.059 140.487 571.521 140.841 571.007C141.184 570.507 141.457 569.932 141.457 569.32H139.457ZM138.043 571.123C136.991 572.032 135.456 572.887 133.386 573.664L134.088 575.536C136.285 574.713 138.056 573.755 139.35 572.637L138.043 571.123ZM133.378 573.667C131.441 574.412 129.088 574.8 126.297 574.8V576.8C129.265 576.8 131.873 576.388 134.096 575.533L133.378 573.667ZM126.297 574.8C122.565 574.8 119.309 573.933 116.496 572.225L115.458 573.935C118.618 575.854 122.242 576.8 126.297 576.8V574.8ZM116.507 572.232C113.669 570.458 111.442 568.081 109.816 565.083L108.058 566.037C109.845 569.333 112.311 571.968 115.447 573.928L116.507 572.232ZM109.825 565.101C108.253 562.058 107.457 558.618 107.457 554.76H105.457C105.457 558.902 106.314 562.662 108.048 566.019L109.825 565.101ZM107.457 554.76C107.457 551.18 108.248 547.901 109.822 544.905L108.052 543.975C106.319 547.272 105.457 550.873 105.457 554.76H107.457ZM109.819 544.911C111.447 541.858 113.678 539.427 116.518 537.601L115.436 535.919C112.303 537.933 109.84 540.622 108.055 543.969L109.819 544.911ZM116.521 537.599C119.38 535.743 122.733 534.8 126.617 534.8V532.8C122.394 532.8 118.653 533.83 115.432 535.921L116.521 537.599ZM184.665 565.56L185.544 566.037L185.547 566.031L184.665 565.56ZM177.625 573.08L178.151 573.931L178.155 573.928L177.625 573.08ZM157.465 573.08L156.935 573.928L156.946 573.935L157.465 573.08ZM150.345 565.56L149.463 566.031L149.467 566.039L149.472 566.048L150.345 565.56ZM150.345 544.12L149.469 543.638L149.466 543.643L150.345 544.12ZM157.465 536.6L157.984 537.455L157.995 537.448L157.465 536.6ZM177.625 536.6L177.088 537.444L177.097 537.449L177.106 537.455L177.625 536.6ZM184.665 544.12L183.783 544.591L183.786 544.597L184.665 544.12ZM181.865 545.64L180.974 546.094L180.979 546.105L180.985 546.115L181.865 545.64ZM176.025 539.24L175.479 540.078L175.489 540.084L175.5 540.091L176.025 539.24ZM159.065 539.24L159.59 540.091L159.597 540.087L159.603 540.083L159.065 539.24ZM153.145 545.64L154.025 546.115L154.029 546.108L153.145 545.64ZM153.145 564.04L152.261 564.508L152.265 564.515L153.145 564.04ZM159.065 570.44L158.527 571.283L158.533 571.287L158.54 571.291L159.065 570.44ZM176.025 570.44L176.558 571.286L176.563 571.283L176.025 570.44ZM181.865 564.04L180.981 563.572L180.978 563.579L181.865 564.04ZM186.225 554.84C186.225 558.637 185.405 562.047 183.783 565.089L185.547 566.031C187.338 562.673 188.225 558.936 188.225 554.84H186.225ZM183.786 565.083C182.16 568.081 179.933 570.458 177.095 572.232L178.155 573.928C181.291 571.968 183.756 569.333 185.544 566.037L183.786 565.083ZM177.099 572.229C174.339 573.936 171.165 574.8 167.545 574.8V576.8C171.499 576.8 175.044 575.851 178.151 573.931L177.099 572.229ZM167.545 574.8C163.982 574.8 160.803 573.937 157.984 572.225L156.946 573.935C160.1 575.85 163.642 576.8 167.545 576.8V574.8ZM157.995 572.232C155.155 570.457 152.898 568.075 151.218 565.072L149.472 566.048C151.312 569.338 153.802 571.97 156.935 573.928L157.995 572.232ZM151.227 565.089C149.605 562.047 148.785 558.637 148.785 554.84H146.785C146.785 558.936 147.672 562.673 149.463 566.031L151.227 565.089ZM148.785 554.84C148.785 550.987 149.606 547.581 151.224 544.597L149.466 543.643C147.671 546.953 146.785 550.693 146.785 554.84H148.785ZM151.221 544.602C152.901 541.548 155.154 539.173 157.984 537.455L156.946 535.745C153.803 537.654 151.309 540.292 149.469 543.638L151.221 544.602ZM157.995 537.448C160.813 535.687 163.987 534.8 167.545 534.8V532.8C163.636 532.8 160.09 533.78 156.935 535.752L157.995 537.448ZM167.545 534.8C171.159 534.8 174.329 535.688 177.088 537.444L178.162 535.756C175.054 533.779 171.504 532.8 167.545 532.8V534.8ZM177.106 537.455C179.933 539.171 182.157 541.543 183.783 544.591L185.547 543.649C183.76 540.297 181.29 537.655 178.144 535.745L177.106 537.455ZM183.786 544.597C185.404 547.581 186.225 550.987 186.225 554.84H188.225C188.225 550.693 187.339 546.953 185.544 543.643L183.786 544.597ZM185.025 554.84C185.025 551.232 184.274 547.997 182.745 545.165L180.985 546.115C182.336 548.616 183.025 551.515 183.025 554.84H185.025ZM182.756 545.186C181.289 542.309 179.219 540.036 176.55 538.389L175.5 540.091C177.845 541.538 179.667 543.531 180.974 546.094L182.756 545.186ZM176.571 538.402C173.94 536.687 170.92 535.84 167.545 535.84V537.84C170.57 537.84 173.203 538.593 175.479 540.078L176.571 538.402ZM167.545 535.84C164.219 535.84 161.204 536.688 158.527 538.397L159.603 540.083C161.939 538.592 164.577 537.84 167.545 537.84V535.84ZM158.54 538.389C155.875 540.033 153.781 542.302 152.261 545.172L154.029 546.108C155.389 543.538 157.242 541.54 159.59 540.091L158.54 538.389ZM152.265 545.165C150.736 547.997 149.985 551.232 149.985 554.84H151.985C151.985 551.515 152.674 548.616 154.025 546.115L152.265 545.165ZM149.985 554.84C149.985 558.398 150.737 561.629 152.261 564.508L154.029 563.572C152.673 561.011 151.985 558.108 151.985 554.84H149.985ZM152.265 564.515C153.784 567.328 155.874 569.59 158.527 571.283L159.603 569.597C157.243 568.09 155.386 566.085 154.025 563.565L152.265 564.515ZM158.54 571.291C161.215 572.942 164.226 573.76 167.545 573.76V571.76C164.571 571.76 161.928 571.032 159.59 569.589L158.54 571.291ZM167.545 573.76C170.914 573.76 173.929 572.944 176.558 571.286L175.492 569.594C173.214 571.03 170.576 571.76 167.545 571.76V573.76ZM176.563 571.283C179.219 569.587 181.286 567.322 182.752 564.501L180.978 563.579C179.671 566.091 177.844 568.093 175.487 569.597L176.563 571.283ZM182.749 564.508C184.273 561.629 185.025 558.398 185.025 554.84H183.025C183.025 558.108 182.337 561.011 180.981 563.572L182.749 564.508ZM212.719 516.36L212.595 517.352L212.603 517.353L212.719 516.36ZM215.039 517L214.592 517.894L214.606 517.901L214.62 517.908L215.039 517ZM215.599 519.56L214.84 518.909L214.831 518.92L215.599 519.56ZM212.639 519.56L212.245 520.479L212.245 520.479L212.639 519.56ZM207.279 519.8L206.789 518.928L206.777 518.935L206.765 518.943L207.279 519.8ZM205.359 522.04L204.456 521.612L204.45 521.623L204.446 521.634L205.359 522.04ZM204.239 574.52L204.946 575.227L204.239 574.52ZM201.919 574.52L201.151 575.16L201.18 575.195L201.212 575.227L201.919 574.52ZM204.159 518.52L204.819 519.271L204.159 518.52ZM215.199 536.04L214.431 536.68L214.489 536.75L214.559 536.808L215.199 536.04ZM194.079 538.12L194.786 537.413V537.413L194.079 538.12ZM194.079 535.96L193.439 535.192L193.439 535.192L194.079 535.96ZM239.439 516.36L239.315 517.352L239.323 517.353L239.439 516.36ZM241.759 517L241.312 517.894L241.326 517.901L241.34 517.908L241.759 517ZM242.319 519.56L241.56 518.909L241.551 518.92L242.319 519.56ZM239.359 519.56L238.965 520.479V520.479L239.359 519.56ZM233.999 519.8L233.509 518.928L233.497 518.935L233.485 518.943L233.999 519.8ZM232.079 522.04L231.176 521.612L231.17 521.623L231.166 521.634L232.079 522.04ZM228.639 574.52L227.871 575.16L227.9 575.195L227.932 575.227L228.639 574.52ZM230.879 518.52L231.539 519.271L230.879 518.52ZM241.919 536.04L241.151 536.68L241.209 536.75L241.279 536.808L241.919 536.04ZM241.919 538.2L242.626 538.907V538.907L241.919 538.2ZM220.799 538.12L221.506 537.413V537.413L220.799 538.12ZM220.799 535.96L220.159 535.192L220.799 535.96ZM210.479 517.2C211.067 517.2 211.77 517.249 212.595 517.352L212.843 515.368C211.962 515.258 211.172 515.2 210.479 515.2V517.2ZM212.603 517.353C213.424 517.45 214.08 517.638 214.592 517.894L215.487 516.106C214.719 515.722 213.828 515.483 212.836 515.367L212.603 517.353ZM214.62 517.908C214.855 518.016 214.961 518.12 215.009 518.185C215.049 518.241 215.079 518.312 215.079 518.44H217.079C217.079 517.928 216.937 517.439 216.63 517.015C216.331 516.6 215.917 516.304 215.458 516.092L214.62 517.908ZM215.079 518.44C215.079 518.508 215.055 518.659 214.84 518.909L216.359 520.211C216.784 519.715 217.079 519.119 217.079 518.44H215.079ZM214.831 518.92C214.76 519.005 214.698 519.04 214.559 519.04V521.04C215.274 521.04 215.906 520.754 216.368 520.2L214.831 518.92ZM214.559 519.04C214.213 519.04 213.714 518.933 213.033 518.641L212.245 520.479C213.058 520.827 213.839 521.04 214.559 521.04V519.04ZM213.033 518.641C212.148 518.262 211.186 518.08 210.159 518.08V520.08C210.946 520.08 211.637 520.218 212.245 520.479L213.033 518.641ZM210.159 518.08C208.937 518.08 207.805 518.357 206.789 518.928L207.77 520.672C208.46 520.283 209.249 520.08 210.159 520.08V518.08ZM206.765 518.943C205.764 519.543 205.003 520.457 204.456 521.612L206.263 522.468C206.676 521.597 207.195 521.017 207.794 520.657L206.765 518.943ZM204.446 521.634C203.942 522.767 203.719 524.174 203.719 525.8H205.719C205.719 524.333 205.924 523.233 206.273 522.446L204.446 521.634ZM203.719 525.8V573.4H205.719V525.8H203.719ZM203.719 573.4C203.719 573.544 203.677 573.668 203.532 573.813L204.946 575.227C205.441 574.732 205.719 574.109 205.719 573.4H203.719ZM203.532 573.813C203.387 573.958 203.263 574 203.119 574V576C203.829 576 204.452 575.722 204.946 575.227L203.532 573.813ZM203.119 574C202.887 574 202.747 573.933 202.626 573.813L201.212 575.227C201.732 575.747 202.392 576 203.119 576V574ZM202.688 573.88C202.575 573.744 202.519 573.599 202.519 573.4H200.519C200.519 574.054 200.731 574.656 201.151 575.16L202.688 573.88ZM202.519 573.4V525.8H200.519V573.4H202.519ZM202.519 525.8C202.519 522.659 203.353 520.56 204.819 519.271L203.499 517.769C201.446 519.573 200.519 522.328 200.519 525.8H202.519ZM204.819 519.271C206.388 517.893 208.257 517.2 210.479 517.2V515.2C207.796 515.2 205.451 516.054 203.499 517.769L204.819 519.271ZM214.159 536.56C214.298 536.56 214.36 536.594 214.431 536.68L215.968 535.4C215.506 534.846 214.874 534.56 214.159 534.56V536.56ZM214.559 536.808C214.645 536.88 214.679 536.942 214.679 537.08H216.679C216.679 536.365 216.394 535.734 215.84 535.272L214.559 536.808ZM214.679 537.08C214.679 537.224 214.637 537.348 214.492 537.493L215.906 538.907C216.401 538.412 216.679 537.789 216.679 537.08H214.679ZM214.492 537.493C214.438 537.547 214.359 537.6 214.159 537.6V539.6C214.813 539.6 215.427 539.387 215.906 538.907L214.492 537.493ZM214.159 537.6H195.119V539.6H214.159V537.6ZM195.119 537.6C195.066 537.6 194.961 537.588 194.786 537.413L193.372 538.827C193.837 539.292 194.426 539.6 195.119 539.6V537.6ZM194.786 537.413C194.612 537.238 194.599 537.134 194.599 537.08H192.599C192.599 537.773 192.907 538.362 193.372 538.827L194.786 537.413ZM194.599 537.08C194.599 536.846 194.664 536.775 194.72 536.728L193.439 535.192C192.855 535.679 192.599 536.354 192.599 537.08H194.599ZM194.72 536.728C194.882 536.593 195.007 536.56 195.119 536.56V534.56C194.485 534.56 193.917 534.794 193.439 535.192L194.72 536.728ZM195.119 536.56H214.159V534.56H195.119V536.56ZM237.199 517.2C237.787 517.2 238.49 517.249 239.315 517.352L239.563 515.368C238.682 515.258 237.892 515.2 237.199 515.2V517.2ZM239.323 517.353C240.144 517.45 240.8 517.638 241.312 517.894L242.207 516.106C241.439 515.722 240.548 515.483 239.556 515.367L239.323 517.353ZM241.34 517.908C241.575 518.016 241.681 518.12 241.729 518.185C241.769 518.241 241.799 518.312 241.799 518.44H243.799C243.799 517.928 243.657 517.439 243.35 517.015C243.051 516.6 242.637 516.304 242.178 516.092L241.34 517.908ZM241.799 518.44C241.799 518.508 241.775 518.659 241.56 518.909L243.079 520.211C243.504 519.715 243.799 519.119 243.799 518.44H241.799ZM241.551 518.92C241.48 519.005 241.418 519.04 241.279 519.04V521.04C241.994 521.04 242.626 520.754 243.088 520.2L241.551 518.92ZM241.279 519.04C240.933 519.04 240.434 518.933 239.753 518.641L238.965 520.479C239.778 520.827 240.559 521.04 241.279 521.04V519.04ZM239.753 518.641C238.868 518.262 237.906 518.08 236.879 518.08V520.08C237.666 520.08 238.357 520.218 238.965 520.479L239.753 518.641ZM236.879 518.08C235.657 518.08 234.525 518.357 233.509 518.928L234.49 520.672C235.18 520.283 235.969 520.08 236.879 520.08V518.08ZM233.485 518.943C232.484 519.543 231.723 520.457 231.176 521.612L232.983 522.468C233.396 521.597 233.915 521.017 234.514 520.657L233.485 518.943ZM231.166 521.634C230.662 522.767 230.439 524.174 230.439 525.8H232.439C232.439 524.333 232.644 523.233 232.993 522.446L231.166 521.634ZM230.439 525.8V573.4H232.439V525.8H230.439ZM230.439 573.4C230.439 573.544 230.397 573.668 230.252 573.813L231.666 575.227C232.161 574.732 232.439 574.109 232.439 573.4H230.439ZM230.252 573.813C230.107 573.958 229.983 574 229.839 574V576C230.549 576 231.172 575.722 231.666 575.227L230.252 573.813ZM229.839 574C229.607 574 229.467 573.933 229.346 573.813L227.932 575.227C228.452 575.747 229.112 576 229.839 576V574ZM229.408 573.88C229.295 573.744 229.239 573.599 229.239 573.4H227.239C227.239 574.054 227.451 574.656 227.871 575.16L229.408 573.88ZM229.239 573.4V525.8H227.239V573.4H229.239ZM229.239 525.8C229.239 522.659 230.073 520.56 231.539 519.271L230.219 517.769C228.166 519.573 227.239 522.328 227.239 525.8H229.239ZM231.539 519.271C233.108 517.893 234.977 517.2 237.199 517.2V515.2C234.516 515.2 232.171 516.054 230.219 517.769L231.539 519.271ZM240.879 536.56C241.018 536.56 241.08 536.594 241.151 536.68L242.688 535.4C242.226 534.846 241.594 534.56 240.879 534.56V536.56ZM241.279 536.808C241.365 536.88 241.399 536.942 241.399 537.08H243.399C243.399 536.365 243.114 535.734 242.56 535.272L241.279 536.808ZM241.399 537.08C241.399 537.224 241.357 537.348 241.212 537.493L242.626 538.907C243.121 538.412 243.399 537.789 243.399 537.08H241.399ZM241.212 537.493C241.158 537.547 241.079 537.6 240.879 537.6V539.6C241.533 539.6 242.147 539.387 242.626 538.907L241.212 537.493ZM240.879 537.6H221.839V539.6H240.879V537.6ZM221.839 537.6C221.786 537.6 221.681 537.588 221.506 537.413L220.092 538.827C220.557 539.292 221.146 539.6 221.839 539.6V537.6ZM221.506 537.413C221.332 537.238 221.319 537.134 221.319 537.08H219.319C219.319 537.773 219.627 538.362 220.092 538.827L221.506 537.413ZM221.319 537.08C221.319 536.846 221.384 536.775 221.44 536.728L220.159 535.192C219.575 535.679 219.319 536.354 219.319 537.08H221.319ZM221.44 536.728C221.602 536.593 221.727 536.56 221.839 536.56V534.56C221.205 534.56 220.637 534.794 220.159 535.192L221.44 536.728ZM221.839 536.56H240.879V534.56H221.839V536.56ZM258.797 573.24L258.307 574.112L258.314 574.116L258.797 573.24ZM251.597 566.04L250.724 566.528L250.728 566.535L251.597 566.04ZM251.517 543.56L250.644 543.072L250.638 543.083L251.517 543.56ZM258.237 536.36L258.756 537.215L258.761 537.212L258.237 536.36ZM273.597 534.92L273.267 535.864L273.277 535.868L273.288 535.871L273.597 534.92ZM279.277 538.28L278.594 539.01L278.606 539.022L278.618 539.033L279.277 538.28ZM283.357 543.96L282.442 544.364L282.448 544.377L282.454 544.39L283.357 543.96ZM285.117 552.04H286.117V552.023L286.116 552.006L285.117 552.04ZM284.637 553.24L285.344 553.947L285.371 553.92L285.396 553.891L284.637 553.24ZM250.877 553.72L249.889 553.876L250.022 554.72H250.877V553.72ZM250.397 550.68V549.68H249.227L249.409 550.836L250.397 550.68ZM282.637 550.68L283.306 551.423L285.243 549.68H282.637V550.68ZM281.837 551.4H280.837V553.645L282.506 552.143L281.837 551.4ZM281.837 549.96H282.837V549.913L282.832 549.866L281.837 549.96ZM279.117 542.84L278.328 543.454L278.333 543.461L278.338 543.467L279.117 542.84ZM273.677 538.52L273.248 539.423L273.257 539.428L273.267 539.432L273.677 538.52ZM261.997 538.12L262.363 539.05L262.375 539.046L262.387 539.041L261.997 538.12ZM257.117 541.4L257.811 542.12L257.818 542.114L257.824 542.107L257.117 541.4ZM253.437 546.92L252.518 546.526L252.514 546.535L252.51 546.545L253.437 546.92ZM253.997 563.72L253.092 564.146L253.095 564.153L253.099 564.16L253.997 563.72ZM259.837 570.28L259.294 571.12L259.302 571.125L259.837 570.28ZM274.557 571.88L274.901 572.819L274.915 572.814L274.928 572.808L274.557 571.88ZM278.877 569.4L279.498 570.184V570.184L278.877 569.4ZM281.997 566.12L281.249 565.456L281.207 565.504L281.171 565.557L281.997 566.12ZM284.317 565.88L283.549 566.52L283.578 566.555L283.61 566.587L284.317 565.88ZM284.397 567.8L283.616 567.175L283.611 567.181L283.606 567.187L284.397 567.8ZM277.997 573.4L277.475 572.547L277.467 572.552L277.997 573.4ZM269.437 574.8C265.583 574.8 262.207 573.979 259.28 572.364L258.314 574.116C261.574 575.914 265.291 576.8 269.437 576.8V574.8ZM259.286 572.368C256.408 570.752 254.138 568.484 252.466 565.545L250.728 566.535C252.576 569.782 255.105 572.314 258.307 574.112L259.286 572.368ZM252.47 565.552C250.806 562.578 249.957 559.071 249.957 555H247.957C247.957 559.355 248.868 563.209 250.724 566.528L252.47 565.552ZM249.957 555C249.957 550.645 250.786 547.005 252.396 544.037L250.638 543.083C248.834 546.409 247.957 550.395 247.957 555H249.957ZM252.39 544.048C254.077 541.032 256.202 538.767 258.756 537.215L257.717 535.505C254.831 537.26 252.477 539.795 250.644 543.072L252.39 544.048ZM258.761 537.212C261.385 535.597 264.139 534.8 267.037 534.8V532.8C263.749 532.8 260.635 533.71 257.713 535.508L258.761 537.212ZM267.037 534.8C269.163 534.8 271.238 535.154 273.267 535.864L273.927 533.976C271.689 533.193 269.39 532.8 267.037 532.8V534.8ZM273.288 535.871C275.28 536.519 277.046 537.563 278.594 539.01L279.96 537.55C278.201 535.904 276.18 534.708 273.906 533.969L273.288 535.871ZM278.618 539.033C280.204 540.42 281.482 542.19 282.442 544.364L284.272 543.556C283.206 541.143 281.763 539.127 279.935 537.527L278.618 539.033ZM282.454 544.39C283.448 546.477 284.014 549.029 284.117 552.074L286.116 552.006C286.006 548.758 285.399 545.923 284.26 543.53L282.454 544.39ZM284.117 552.04C284.117 552.192 284.067 552.368 283.878 552.589L285.396 553.891C285.846 553.365 286.117 552.741 286.117 552.04H284.117ZM283.93 552.533C283.785 552.678 283.661 552.72 283.517 552.72V554.72C284.226 554.72 284.849 554.442 285.344 553.947L283.93 552.533ZM283.517 552.72H250.877V554.72H283.517V552.72ZM251.865 553.564L251.385 550.524L249.409 550.836L249.889 553.876L251.865 553.564ZM250.397 551.68H282.637V549.68H250.397V551.68ZM281.968 549.937L281.168 550.657L282.506 552.143L283.306 551.423L281.968 549.937ZM282.837 551.4V549.96H280.837V551.4H282.837ZM282.832 549.866C282.55 546.875 281.583 544.308 279.896 542.213L278.338 543.467C279.744 545.212 280.59 547.392 280.841 550.054L282.832 549.866ZM279.906 542.226C278.317 540.183 276.375 538.638 274.087 537.608L273.267 539.432C275.245 540.322 276.93 541.657 278.328 543.454L279.906 542.226ZM274.106 537.617C271.843 536.542 269.483 536 267.037 536V538C269.177 538 271.244 538.472 273.248 539.423L274.106 537.617ZM267.037 536C265.279 536 263.466 536.41 261.606 537.199L262.387 539.041C264.048 538.336 265.595 538 267.037 538V536ZM261.63 537.19C259.729 537.939 257.989 539.114 256.41 540.693L257.824 542.107C259.232 540.699 260.745 539.688 262.363 539.05L261.63 537.19ZM256.423 540.68C254.818 542.227 253.521 544.185 252.518 546.526L254.356 547.314C255.273 545.175 256.429 543.453 257.811 542.12L256.423 540.68ZM252.51 546.545C251.545 548.929 251.077 551.674 251.077 554.76H253.077C253.077 551.873 253.515 549.391 254.364 547.295L252.51 546.545ZM251.077 554.76C251.077 558.148 251.744 561.282 253.092 564.146L254.902 563.294C253.689 560.718 253.077 557.878 253.077 554.76H251.077ZM253.099 564.16C254.513 567.044 256.583 569.369 259.294 571.12L260.379 569.44C257.971 567.885 256.148 565.836 254.895 563.28L253.099 564.16ZM259.302 571.125C262.108 572.9 265.504 573.76 269.437 573.76V571.76C265.797 571.76 262.792 570.966 260.372 569.435L259.302 571.125ZM269.437 573.76C271.36 573.76 273.184 573.449 274.901 572.819L274.213 570.941C272.73 571.485 271.14 571.76 269.437 571.76V573.76ZM274.928 572.808C276.613 572.135 278.138 571.261 279.498 570.184L278.256 568.616C277.056 569.566 275.701 570.345 274.185 570.952L274.928 572.808ZM279.498 570.184C280.845 569.117 281.958 567.952 282.823 566.683L281.171 565.557C280.435 566.635 279.469 567.656 278.256 568.616L279.498 570.184ZM282.744 566.784C283.049 566.442 283.25 566.4 283.357 566.4V564.4C282.503 564.4 281.798 564.838 281.249 565.456L282.744 566.784ZM283.357 566.4C283.397 566.4 283.447 566.398 283.549 566.52L285.085 565.24C284.653 564.722 284.064 564.4 283.357 564.4V566.4ZM283.61 566.587C283.691 566.668 283.717 566.735 283.717 566.84H285.717C285.717 566.198 285.476 565.625 285.024 565.173L283.61 566.587ZM283.717 566.84C283.717 567.009 283.674 567.103 283.616 567.175L285.178 568.425C285.546 567.964 285.717 567.418 285.717 566.84H283.717ZM283.606 567.187C282.037 569.213 279.999 571.002 277.475 572.547L278.519 574.253C281.222 572.598 283.45 570.654 285.187 568.413L283.606 567.187ZM277.467 572.552C275.073 574.048 272.404 574.8 269.437 574.8V576.8C272.763 576.8 275.801 575.952 278.527 574.248L277.467 572.552ZM303.25 573.24L302.76 574.112L302.767 574.116L303.25 573.24ZM296.05 566.04L295.177 566.528L295.181 566.535L296.05 566.04ZM295.97 543.56L295.097 543.072L295.091 543.083L295.97 543.56ZM302.69 536.36L303.209 537.215L303.214 537.212L302.69 536.36ZM318.05 534.92L317.72 535.864L317.73 535.868L317.741 535.871L318.05 534.92ZM323.73 538.28L323.047 539.01L323.059 539.022L323.072 539.033L323.73 538.28ZM327.81 543.96L326.895 544.364L326.901 544.377L326.907 544.39L327.81 543.96ZM329.57 552.04H330.57V552.023L330.569 552.006L329.57 552.04ZM329.09 553.24L329.797 553.947L329.824 553.92L329.849 553.891L329.09 553.24ZM295.33 553.72L294.342 553.876L294.476 554.72H295.33V553.72ZM294.85 550.68V549.68H293.68L293.862 550.836L294.85 550.68ZM327.09 550.68L327.759 551.423L329.696 549.68H327.09V550.68ZM326.29 551.4H325.29V553.645L326.959 552.143L326.29 551.4ZM326.29 549.96H327.29V549.913L327.286 549.866L326.29 549.96ZM323.57 542.84L322.781 543.454L322.786 543.461L322.791 543.467L323.57 542.84ZM318.13 538.52L317.701 539.423L317.71 539.428L317.72 539.432L318.13 538.52ZM306.45 538.12L306.817 539.05L306.829 539.046L306.841 539.041L306.45 538.12ZM301.57 541.4L302.264 542.12L302.271 542.114L302.277 542.107L301.57 541.4ZM297.89 546.92L296.971 546.526L296.967 546.535L296.963 546.545L297.89 546.92ZM298.45 563.72L297.545 564.146L297.549 564.153L297.552 564.16L298.45 563.72ZM304.29 570.28L303.747 571.12L303.755 571.125L304.29 570.28ZM319.01 571.88L319.354 572.819L319.368 572.814L319.381 572.808L319.01 571.88ZM323.33 569.4L323.951 570.184V570.184L323.33 569.4ZM326.45 566.12L325.703 565.456L325.66 565.504L325.624 565.557L326.45 566.12ZM328.77 565.88L328.002 566.52L328.031 566.555L328.063 566.587L328.77 565.88ZM328.85 567.8L328.069 567.175L328.064 567.181L328.06 567.187L328.85 567.8ZM322.45 573.4L321.928 572.547L321.92 572.552L322.45 573.4ZM313.89 574.8C310.036 574.8 306.66 573.979 303.733 572.364L302.767 574.116C306.027 575.914 309.744 576.8 313.89 576.8V574.8ZM303.74 572.368C300.861 570.752 298.591 568.484 296.919 565.545L295.181 566.535C297.029 569.782 299.559 572.314 302.76 574.112L303.74 572.368ZM296.923 565.552C295.259 562.578 294.41 559.071 294.41 555H292.41C292.41 559.355 293.321 563.209 295.177 566.528L296.923 565.552ZM294.41 555C294.41 550.645 295.239 547.005 296.849 544.037L295.091 543.083C293.287 546.409 292.41 550.395 292.41 555H294.41ZM296.843 544.048C298.53 541.032 300.656 538.767 303.209 537.215L302.171 535.505C299.284 537.26 296.93 539.795 295.097 543.072L296.843 544.048ZM303.214 537.212C305.839 535.597 308.592 534.8 311.49 534.8V532.8C308.202 532.8 305.088 533.71 302.166 535.508L303.214 537.212ZM311.49 534.8C313.616 534.8 315.692 535.154 317.72 535.864L318.38 533.976C316.142 533.193 313.844 532.8 311.49 532.8V534.8ZM317.741 535.871C319.734 536.519 321.499 537.563 323.047 539.01L324.413 537.55C322.654 535.904 320.633 534.708 318.359 533.969L317.741 535.871ZM323.072 539.033C324.657 540.42 325.935 542.19 326.895 544.364L328.725 543.556C327.659 541.143 326.216 539.127 324.389 537.527L323.072 539.033ZM326.907 544.39C327.901 546.477 328.467 549.029 328.571 552.074L330.569 552.006C330.459 548.758 329.852 545.923 328.713 543.53L326.907 544.39ZM328.57 552.04C328.57 552.192 328.52 552.368 328.331 552.589L329.849 553.891C330.3 553.365 330.57 552.741 330.57 552.04H328.57ZM328.383 552.533C328.238 552.678 328.114 552.72 327.97 552.72V554.72C328.679 554.72 329.302 554.442 329.797 553.947L328.383 552.533ZM327.97 552.72H295.33V554.72H327.97V552.72ZM296.318 553.564L295.838 550.524L293.862 550.836L294.342 553.876L296.318 553.564ZM294.85 551.68H327.09V549.68H294.85V551.68ZM326.421 549.937L325.621 550.657L326.959 552.143L327.759 551.423L326.421 549.937ZM327.29 551.4V549.96H325.29V551.4H327.29ZM327.286 549.866C327.003 546.875 326.036 544.308 324.349 542.213L322.791 543.467C324.197 545.212 325.043 547.392 325.294 550.054L327.286 549.866ZM324.359 542.226C322.77 540.183 320.828 538.638 318.54 537.608L317.72 539.432C319.698 540.322 321.383 541.657 322.781 543.454L324.359 542.226ZM318.559 537.617C316.296 536.542 313.936 536 311.49 536V538C313.63 538 315.698 538.472 317.701 539.423L318.559 537.617ZM311.49 536C309.732 536 307.919 536.41 306.059 537.199L306.841 539.041C308.501 538.336 310.048 538 311.49 538V536ZM306.083 537.19C304.182 537.939 302.442 539.114 300.863 540.693L302.277 542.107C303.685 540.699 305.198 539.688 306.817 539.05L306.083 537.19ZM300.876 540.68C299.271 542.227 297.974 544.185 296.971 546.526L298.809 547.314C299.726 545.175 300.882 543.453 302.264 542.12L300.876 540.68ZM296.963 546.545C295.998 548.929 295.53 551.674 295.53 554.76H297.53C297.53 551.873 297.968 549.391 298.817 547.295L296.963 546.545ZM295.53 554.76C295.53 558.148 296.197 561.282 297.545 564.146L299.355 563.294C298.143 560.718 297.53 557.878 297.53 554.76H295.53ZM297.552 564.16C298.966 567.044 301.036 569.369 303.747 571.12L304.833 569.44C302.424 567.885 300.601 565.836 299.348 563.28L297.552 564.16ZM303.755 571.125C306.561 572.9 309.957 573.76 313.89 573.76V571.76C310.25 571.76 307.245 570.966 304.825 569.435L303.755 571.125ZM313.89 573.76C315.813 573.76 317.637 573.449 319.354 572.819L318.666 570.941C317.183 571.485 315.593 571.76 313.89 571.76V573.76ZM319.381 572.808C321.066 572.135 322.591 571.261 323.951 570.184L322.709 568.616C321.509 569.566 320.154 570.345 318.639 570.952L319.381 572.808ZM323.951 570.184C325.298 569.117 326.411 567.952 327.276 566.683L325.624 565.557C324.889 566.635 323.922 567.656 322.709 568.616L323.951 570.184ZM327.197 566.784C327.502 566.442 327.703 566.4 327.81 566.4V564.4C326.957 564.4 326.252 564.838 325.703 565.456L327.197 566.784ZM327.81 566.4C327.85 566.4 327.9 566.398 328.002 566.52L329.538 565.24C329.106 564.722 328.517 564.4 327.81 564.4V566.4ZM328.063 566.587C328.144 566.668 328.17 566.735 328.17 566.84H330.17C330.17 566.198 329.929 565.625 329.477 565.173L328.063 566.587ZM328.17 566.84C328.17 567.009 328.127 567.103 328.069 567.175L329.631 568.425C330 567.964 330.17 567.418 330.17 566.84H328.17ZM328.06 567.187C326.49 569.213 324.452 571.002 321.928 572.547L322.972 574.253C325.675 572.598 327.904 570.654 329.64 568.413L328.06 567.187ZM321.92 572.552C319.526 574.048 316.858 574.8 313.89 574.8V576.8C317.216 576.8 320.254 575.952 322.98 574.248L321.92 572.552Z" fill="#F5F5DC" mask="url(#path-4-outside-2_9_23)"/>
<line x1="358" y1="555" x2="398" y2="555" stroke="#F5F5DC" stroke-width="2"/>
<line x1="38" y1="555" x2="78" y2="555" stroke="#F5F5DC" stroke-width="2"/>
</svg>
